<?xml version="1.0" encoding="utf-8"?>
<!-- Generator: Adobe Illustrator 22.1.0, SVG Export Plug-In . SVG Version: 6.00 Build 0)  -->
<svg version="1.1" id="Layer_1" xmlns="http://www.w3.org/2000/svg" xmlns:xlink="http://www.w3.org/1999/xlink" x="0px" y="0px"
	 viewBox="0 0 238.9 76.4" style="enable-background:new 0 0 238.9 76.4;" xml:space="preserve">
<style type="text/css">
	.st0{fill:#FFFFFF;}
	.st1{clip-path:url(#SVGID_2_);fill:url(#SVGID_3_);}
	.st2{clip-path:url(#SVGID_5_);fill:#FFFFFF;}
	.st3{clip-path:url(#SVGID_5_);}
</style>
<rect y="0" class="st0" width="238.9" height="76.4"/>
<g>
	<defs>
		<path id="SVGID_1_" d="M23.7,8.2c-6.7,0-12.1,5.4-12.1,12.1v35.8c0,6.7,5.4,12.1,12.1,12.1h35.8c6.7,0,12.1-5.4,12.1-12.1V20.3
			c0-6.7-5.4-12.1-12.1-12.1H23.7z"/>
	</defs>
	<clipPath id="SVGID_2_">
		<use xlink:href="#SVGID_1_"  style="overflow:visible;"/>
	</clipPath>
	
		<linearGradient id="SVGID_3_" gradientUnits="userSpaceOnUse" x1="-6.612142e-06" y1="76.3531" x2="1" y2="76.3531" gradientTransform="matrix(0 60 -60 0 4622.7642 8.1765)">
		<stop  offset="0" style="stop-color:#0ED4FC"/>
		<stop  offset="1" style="stop-color:#0C57EF"/>
	</linearGradient>
	<rect x="11.6" y="8.2" class="st1" width="60" height="60"/>
</g>
<g>
	<defs>
		<rect id="SVGID_4_" y="0" width="238.9" height="76.4"/>
	</defs>
	<clipPath id="SVGID_5_">
		<use xlink:href="#SVGID_4_"  style="overflow:visible;"/>
	</clipPath>
	<path class="st2" d="M41.3,22l1.2-2.1c0.8-1.3,2.4-1.8,3.7-1s1.8,2.4,1,3.7L35.6,42.9H44c2.7,0,4.3,3.2,3.1,5.5H22.3
		c-1.5,0-2.7-1.2-2.7-2.7c0-1.5,1.2-2.7,2.7-2.7h7l8.9-15.4l-2.8-4.8c-0.8-1.3-0.3-3,1-3.7c1.3-0.8,3-0.3,3.7,1L41.3,22z M30.8,51.1
		l-2.6,4.6c-0.8,1.3-2.4,1.8-3.7,1c-1.3-0.8-1.8-2.4-1-3.7l1.9-3.4C27.6,48.9,29.4,49.4,30.8,51.1 M53.4,42.9h7.1
		c1.5,0,2.7,1.2,2.7,2.7c0,1.5-1.2,2.7-2.7,2.7h-3.9l2.7,4.6c0.8,1.3,0.3,3-1,3.7c-1.3,0.8-3,0.3-3.7-1c-4.5-7.8-7.9-13.6-10.1-17.5
		c-2.3-3.9-0.7-7.9,1-9.2C47.1,32,49.8,36.7,53.4,42.9"/>
	<polygon class="st3" points="123.3,15.7 131.3,15.7 131.3,16.9 128.1,16.9 128.1,27.4 126.5,27.4 126.5,16.9 123.3,16.9 	"/>
	<path class="st3" d="M131.4,22.8c0-0.7,0.1-1.3,0.3-1.9c0.2-0.6,0.5-1,0.9-1.4c0.4-0.4,0.9-0.7,1.4-0.9c0.5-0.2,1.1-0.3,1.7-0.3
		c0.4,0,0.8,0.1,1.2,0.2s0.7,0.2,1,0.4c0.3,0.2,0.5,0.4,0.7,0.6c0.2,0.2,0.4,0.5,0.5,0.7v-1.8h1.5v9.2h-1.5v-1.8
		c-0.1,0.2-0.3,0.5-0.5,0.7c-0.2,0.2-0.5,0.4-0.8,0.6c-0.3,0.2-0.6,0.3-1,0.4c-0.4,0.1-0.8,0.1-1.2,0.1c-0.6,0-1.2-0.1-1.7-0.3
		c-0.5-0.2-1-0.5-1.4-0.9c-0.4-0.4-0.7-0.9-0.9-1.5C131.5,24.1,131.4,23.5,131.4,22.8 M139.2,22.8c0-0.5-0.1-1-0.3-1.4
		c-0.2-0.4-0.4-0.7-0.7-1c-0.3-0.3-0.6-0.5-1-0.6c-0.4-0.1-0.8-0.2-1.2-0.2c-0.4,0-0.8,0.1-1.2,0.2c-0.4,0.1-0.7,0.4-1,0.6
		c-0.3,0.3-0.5,0.6-0.7,1c-0.2,0.4-0.3,0.9-0.3,1.4c0,0.5,0.1,1,0.3,1.4c0.2,0.4,0.4,0.8,0.7,1c0.3,0.3,0.6,0.5,1,0.6
		c0.4,0.2,0.8,0.2,1.2,0.2c0.4,0,0.8-0.1,1.2-0.2c0.4-0.1,0.7-0.4,1-0.6c0.3-0.3,0.5-0.6,0.7-1C139.1,23.8,139.2,23.3,139.2,22.8
		 M134.9,15c0-0.2,0.1-0.5,0.2-0.6c0.1-0.2,0.2-0.3,0.4-0.4c0.2-0.1,0.3-0.2,0.6-0.2s0.4-0.1,0.6-0.1c0.4,0,0.8,0.1,1.1,0.4
		c0.3,0.2,0.5,0.6,0.5,1c0,0.2,0,0.4-0.1,0.6c-0.1,0.2-0.2,0.3-0.3,0.4c-0.1,0.1-0.2,0.2-0.4,0.3c-0.1,0.1-0.3,0.1-0.4,0.1l0,0.4
		h-0.9l0-1.1c0.4,0,0.7-0.1,0.9-0.2c0.1-0.1,0.2-0.3,0.2-0.5c0-0.2-0.1-0.3-0.2-0.4c-0.1-0.1-0.3-0.1-0.4-0.1c-0.2,0-0.3,0-0.5,0.1
		c-0.1,0.1-0.2,0.2-0.3,0.4H134.9z"/>
	<path class="st3" d="M144.1,16.7c-0.3,0-0.6-0.1-0.8-0.3c-0.2-0.2-0.3-0.5-0.3-0.8c0-0.3,0.1-0.6,0.3-0.8c0.2-0.2,0.5-0.3,0.8-0.3
		c0.3,0,0.5,0.1,0.7,0.3c0.2,0.2,0.3,0.5,0.3,0.8c0,0.3-0.1,0.6-0.3,0.8C144.6,16.6,144.4,16.7,144.1,16.7 M143.3,18.2h1.5v9.2h-1.5
		V18.2z"/>
	<path class="st3" d="M152.3,19.5h-1.2v-1.3h1.2v-2.3h1.5v2.3h2.4v1.3h-2.4v5.4c0,0.5,0.1,0.8,0.3,1c0.2,0.2,0.5,0.3,1,0.3h1.1v1.3
		h-1.4c-0.8,0-1.4-0.2-1.9-0.6c-0.4-0.4-0.7-1-0.7-2V19.5z"/>
	<path class="st3" d="M159.6,27.4H158v-9.2h1.5v1.7c0.3-0.5,0.6-1,1.1-1.3c0.5-0.3,1.1-0.5,1.8-0.5v1.6h-0.4c-0.4,0-0.7,0-1,0.1
		c-0.3,0.1-0.6,0.2-0.8,0.5c-0.2,0.2-0.4,0.5-0.5,0.8c-0.1,0.3-0.2,0.8-0.2,1.3V27.4z"/>
	<path class="st3" d="M172.5,24.4c-0.1,0.4-0.3,0.8-0.5,1.2c-0.2,0.4-0.5,0.7-0.9,0.9c-0.4,0.3-0.8,0.5-1.2,0.6
		c-0.5,0.1-1,0.2-1.6,0.2c-0.7,0-1.3-0.1-1.8-0.3c-0.6-0.2-1-0.5-1.4-0.9c-0.4-0.4-0.7-0.9-0.9-1.5c-0.2-0.6-0.3-1.2-0.3-1.9
		s0.1-1.3,0.3-1.9c0.2-0.6,0.5-1,0.9-1.5c0.4-0.4,0.9-0.7,1.4-0.9c0.6-0.2,1.2-0.3,1.8-0.3c0.7,0,1.3,0.1,1.8,0.3
		c0.5,0.2,1,0.5,1.4,0.9c0.4,0.4,0.7,0.8,0.9,1.3s0.3,1.1,0.3,1.7c0,0.2,0,0.3,0,0.4c0,0.1,0,0.3,0,0.4h-7.4c0,0.5,0.1,0.9,0.3,1.2
		c0.2,0.4,0.4,0.7,0.7,0.9c0.3,0.2,0.6,0.4,0.9,0.6c0.3,0.1,0.7,0.2,1.1,0.2c0.7,0,1.3-0.2,1.7-0.5c0.4-0.3,0.7-0.7,0.9-1.2H172.5z
		 M168.2,19.5c-0.4,0-0.7,0.1-1.1,0.2c-0.3,0.1-0.6,0.3-0.9,0.5c-0.3,0.2-0.5,0.5-0.6,0.8c-0.2,0.3-0.3,0.7-0.3,1.1h5.8
		c0-0.4-0.1-0.8-0.2-1.1c-0.2-0.3-0.4-0.6-0.6-0.8c-0.3-0.2-0.6-0.4-0.9-0.5C169,19.5,168.6,19.5,168.2,19.5 M170.8,16.3l-0.8,0.9
		l-1.7-1.1l-1.7,1.1l-0.8-0.9l2.5-1.6L170.8,16.3z"/>
	<path class="st3" d="M181.5,22.3c0-0.9-0.2-1.6-0.7-2.1c-0.5-0.5-1.1-0.7-1.9-0.7c-0.8,0-1.4,0.2-1.9,0.7c-0.5,0.5-0.7,1.2-0.7,2.2
		v5h-1.5v-9.2h1.5v1.6c0.3-0.5,0.7-0.9,1.2-1.2c0.5-0.3,1.1-0.4,1.7-0.4c0.5,0,1,0.1,1.5,0.2c0.5,0.2,0.9,0.4,1.2,0.7
		c0.3,0.3,0.6,0.7,0.8,1.2c0.2,0.5,0.3,1.1,0.3,1.7v5.3h-1.5V22.3z"/>
	<path class="st3" d="M98.3,51.4h-8.1l-1.4,4h-3.3l7-19.5h3.7l7,19.5h-3.4L98.3,51.4z M94.3,39.8l-3.2,9h6.4L94.3,39.8z"/>
	<path class="st3" d="M109.3,42.4c0.2-0.3,0.5-0.6,0.9-0.9c0.4-0.3,0.8-0.6,1.2-0.8c0.5-0.2,1-0.4,1.5-0.6c0.5-0.1,1.1-0.2,1.8-0.2
		c1,0,2,0.2,2.8,0.5c0.9,0.4,1.7,0.9,2.3,1.6c0.7,0.7,1.2,1.5,1.5,2.4c0.4,0.9,0.6,2,0.6,3.2c0,1.2-0.2,2.2-0.6,3.2
		c-0.4,1-0.9,1.8-1.5,2.5c-0.7,0.7-1.4,1.2-2.3,1.6c-0.9,0.4-1.8,0.6-2.8,0.6c-0.6,0-1.2-0.1-1.8-0.2c-0.6-0.1-1.1-0.3-1.5-0.6
		c-0.4-0.2-0.8-0.5-1.2-0.8c-0.4-0.3-0.7-0.6-0.9-0.9v9.8h-3.2V40h3.2V42.4z M118.7,47.6c0-0.8-0.1-1.5-0.4-2.1
		c-0.3-0.6-0.6-1.1-1-1.5c-0.4-0.4-0.9-0.7-1.5-0.9c-0.6-0.2-1.2-0.3-1.7-0.3c-0.6,0-1.2,0.1-1.7,0.3c-0.6,0.2-1.1,0.5-1.5,1
		c-0.4,0.4-0.8,0.9-1,1.6c-0.3,0.6-0.4,1.3-0.4,2.1c0,0.8,0.1,1.5,0.4,2.1c0.3,0.6,0.6,1.1,1,1.6c0.4,0.4,0.9,0.7,1.5,1
		c0.6,0.2,1.1,0.3,1.7,0.3c0.6,0,1.2-0.1,1.7-0.3c0.6-0.2,1.1-0.5,1.5-1c0.4-0.4,0.8-1,1-1.6C118.6,49.1,118.7,48.4,118.7,47.6"/>
	<path class="st3" d="M128.3,42.4c0.2-0.3,0.5-0.6,0.9-0.9c0.4-0.3,0.8-0.6,1.2-0.8c0.5-0.2,1-0.4,1.5-0.6c0.5-0.1,1.1-0.2,1.8-0.2
		c1,0,2,0.2,2.8,0.5c0.9,0.4,1.7,0.9,2.3,1.6c0.7,0.7,1.2,1.5,1.5,2.4c0.4,0.9,0.6,2,0.6,3.2c0,1.2-0.2,2.2-0.6,3.2
		c-0.4,1-0.9,1.8-1.5,2.5c-0.7,0.7-1.4,1.2-2.3,1.6c-0.9,0.4-1.8,0.6-2.8,0.6c-0.6,0-1.2-0.1-1.8-0.2c-0.6-0.1-1.1-0.3-1.5-0.6
		c-0.4-0.2-0.8-0.5-1.2-0.8c-0.4-0.3-0.7-0.6-0.9-0.9v9.8h-3.2V40h3.2V42.4z M137.7,47.6c0-0.8-0.1-1.5-0.4-2.1
		c-0.3-0.6-0.6-1.1-1-1.5c-0.4-0.4-0.9-0.7-1.5-0.9c-0.6-0.2-1.2-0.3-1.7-0.3c-0.6,0-1.2,0.1-1.7,0.3c-0.6,0.2-1.1,0.5-1.5,1
		c-0.4,0.4-0.8,0.9-1,1.6c-0.3,0.6-0.4,1.3-0.4,2.1c0,0.8,0.1,1.5,0.4,2.1c0.3,0.6,0.6,1.1,1,1.6c0.4,0.4,0.9,0.7,1.5,1
		c0.6,0.2,1.1,0.3,1.7,0.3c0.6,0,1.2-0.1,1.7-0.3c0.6-0.2,1.1-0.5,1.5-1c0.4-0.4,0.8-1,1-1.6C137.5,49.1,137.7,48.4,137.7,47.6"/>
	<path class="st3" d="M164.5,49.8c0,0.7-0.1,1.4-0.4,2.1c-0.3,0.7-0.7,1.3-1.3,1.8c-0.6,0.5-1.3,0.9-2.1,1.2
		c-0.8,0.3-1.8,0.5-2.9,0.5c-1,0-1.9-0.1-2.7-0.4c-0.8-0.3-1.6-0.6-2.2-1.1c-0.6-0.5-1.1-1-1.5-1.7c-0.4-0.7-0.5-1.4-0.5-2.3h3.4
		c0.1,0.8,0.4,1.4,1,2c0.6,0.5,1.4,0.8,2.5,0.8c1.1,0,2-0.3,2.6-0.8c0.6-0.5,0.9-1.2,0.9-2c0-0.8-0.3-1.3-0.8-1.8
		c-0.5-0.4-1.2-0.7-1.9-1c-0.8-0.2-1.6-0.5-2.5-0.7c-0.9-0.2-1.7-0.5-2.5-0.9c-0.8-0.4-1.4-0.9-1.9-1.6c-0.5-0.7-0.8-1.6-0.8-2.8
		c0-0.8,0.2-1.6,0.5-2.3c0.3-0.7,0.8-1.2,1.4-1.7c0.6-0.5,1.3-0.8,2.1-1.1c0.8-0.3,1.7-0.4,2.7-0.4c0.9,0,1.8,0.1,2.6,0.4
		c0.8,0.2,1.5,0.6,2,1c0.6,0.4,1,1,1.4,1.6c0.3,0.6,0.6,1.4,0.6,2.2h-3.5c0-0.3-0.1-0.6-0.3-0.9c-0.1-0.3-0.4-0.6-0.6-0.8
		c-0.3-0.2-0.6-0.4-1-0.6c-0.4-0.1-0.8-0.2-1.3-0.2c-0.9,0-1.7,0.2-2.3,0.7c-0.6,0.4-0.9,1.1-0.9,2c0,0.5,0.1,1,0.4,1.3
		c0.3,0.3,0.7,0.6,1.2,0.9c0.5,0.2,1,0.4,1.6,0.6c0.6,0.2,1.2,0.3,1.9,0.5c0.6,0.2,1.3,0.4,1.9,0.6c0.6,0.2,1.2,0.6,1.7,1
		c0.5,0.4,0.9,0.9,1.2,1.5C164.3,48.2,164.5,49,164.5,49.8"/>
	<path class="st3" d="M168.7,42.6h-1.8V40h1.8v-4h3.2v4h3.8v2.6H172v8.5c0,0.6,0.1,1,0.4,1.2c0.3,0.3,0.7,0.4,1.4,0.4h2v2.7h-2.5
		c-1.4,0-2.5-0.3-3.3-1c-0.8-0.6-1.2-1.7-1.2-3.3V42.6z"/>
	<path class="st3" d="M193.3,47.7c0,1.2-0.2,2.2-0.6,3.2c-0.4,1-1,1.8-1.7,2.4c-0.7,0.7-1.6,1.2-2.5,1.6c-1,0.4-2,0.5-3.1,0.5
		c-1.1,0-2.1-0.2-3.1-0.5s-1.8-0.9-2.4-1.6c-0.7-0.7-1.2-1.5-1.6-2.4c-0.4-1-0.6-2-0.6-3.2s0.2-2.2,0.6-3.2c0.4-1,1-1.8,1.7-2.4
		c0.7-0.7,1.5-1.2,2.5-1.6c1-0.4,2-0.5,3.1-0.5c1.1,0,2.1,0.2,3.1,0.5c1,0.4,1.8,0.9,2.5,1.6c0.7,0.7,1.3,1.5,1.7,2.4
		C193.1,45.4,193.3,46.5,193.3,47.7 M180.9,47.7c0,0.8,0.1,1.6,0.4,2.2c0.2,0.6,0.6,1.1,1,1.6c0.4,0.4,0.9,0.7,1.4,0.9
		c0.5,0.2,1.1,0.3,1.7,0.3c0.6,0,1.2-0.1,1.7-0.3c0.6-0.2,1.1-0.5,1.5-0.9c0.4-0.4,0.8-0.9,1.1-1.6c0.3-0.6,0.4-1.4,0.4-2.2
		c0-0.8-0.1-1.6-0.4-2.2c-0.3-0.6-0.6-1.1-1-1.5c-0.4-0.4-0.9-0.7-1.5-0.9c-0.6-0.2-1.1-0.3-1.7-0.3c-0.6,0-1.2,0.1-1.7,0.3
		c-0.5,0.2-1,0.5-1.5,0.9c-0.4,0.4-0.8,0.9-1,1.5C181,46.1,180.9,46.8,180.9,47.7"/>
	<path class="st3" d="M199.7,55.4h-3.2V40h3.2v2.4c0.4-0.8,1.1-1.4,1.8-1.8c0.8-0.4,1.7-0.6,2.8-0.6v3.3h-0.8
		c-0.6,0-1.1,0.1-1.6,0.2c-0.5,0.1-0.9,0.4-1.2,0.7c-0.3,0.3-0.6,0.7-0.8,1.3c-0.2,0.5-0.3,1.2-0.3,2V55.4z"/>
	<path class="st3" d="M221,50.6c-0.2,0.7-0.5,1.3-1,1.9c-0.4,0.6-0.9,1.1-1.5,1.5c-0.6,0.4-1.3,0.8-2,1c-0.8,0.3-1.6,0.4-2.6,0.4
		c-1.1,0-2.1-0.2-3.1-0.5c-0.9-0.4-1.8-0.9-2.4-1.6c-0.7-0.7-1.2-1.5-1.6-2.4c-0.4-1-0.6-2-0.6-3.2s0.2-2.2,0.6-3.2
		c0.4-1,0.9-1.8,1.6-2.4c0.7-0.7,1.5-1.2,2.4-1.6c0.9-0.4,2-0.5,3.1-0.5c1.1,0,2.1,0.2,3,0.5c0.9,0.3,1.7,0.8,2.4,1.5
		c0.7,0.6,1.2,1.4,1.6,2.3c0.4,0.9,0.6,1.9,0.6,3c0,0.2,0,0.5,0,0.7c0,0.2,0,0.5-0.1,0.7h-11.8c0.1,0.6,0.2,1.2,0.4,1.7
		c0.2,0.5,0.6,0.9,1,1.3s0.8,0.6,1.3,0.8c0.5,0.2,1.1,0.3,1.7,0.3c1,0,1.8-0.2,2.3-0.6c0.6-0.4,1-0.9,1.3-1.5H221z M213.8,42.6
		c-1.1,0-2,0.3-2.8,0.9c-0.8,0.6-1.3,1.4-1.4,2.5h8.5c0-0.5-0.1-1-0.4-1.4c-0.2-0.4-0.5-0.8-0.9-1.1c-0.4-0.3-0.8-0.5-1.4-0.7
		C214.9,42.7,214.3,42.6,213.8,42.6"/>
</g>
</svg>
