<?xml version="1.0" encoding="utf-8"?>
<!-- Generator: Adobe Illustrator 22.1.0, SVG Export Plug-In . SVG Version: 6.00 Build 0)  -->
<svg version="1.1" id="Layer_1" xmlns="http://www.w3.org/2000/svg" xmlns:xlink="http://www.w3.org/1999/xlink" x="0px" y="0px"
	 viewBox="0 0 238.9 76.4" style="enable-background:new 0 0 238.9 76.4;" xml:space="preserve">
<style type="text/css">
	.st0{fill:#FFFFFF;}
	.st1{clip-path:url(#SVGID_2_);fill:url(#SVGID_3_);}
	.st2{clip-path:url(#SVGID_5_);fill:url(#SVGID_6_);}
	.st3{clip-path:url(#SVGID_8_);fill:url(#SVGID_9_);}
	.st4{clip-path:url(#SVGID_11_);fill:url(#SVGID_12_);}
	.st5{clip-path:url(#SVGID_14_);fill:url(#SVGID_15_);}
	.st6{clip-path:url(#SVGID_17_);fill:url(#SVGID_18_);}
	.st7{clip-path:url(#SVGID_20_);fill:url(#SVGID_21_);}
	.st8{clip-path:url(#SVGID_23_);fill:url(#SVGID_24_);}
	.st9{clip-path:url(#SVGID_26_);fill:url(#SVGID_27_);}
	.st10{clip-path:url(#SVGID_29_);fill:url(#SVGID_30_);}
	.st11{clip-path:url(#SVGID_32_);fill:url(#SVGID_33_);}
	.st12{clip-path:url(#SVGID_35_);fill:url(#SVGID_36_);}
	.st13{clip-path:url(#SVGID_38_);fill:url(#SVGID_39_);}
	.st14{clip-path:url(#SVGID_41_);fill:url(#SVGID_42_);}
	.st15{clip-path:url(#SVGID_44_);fill:url(#SVGID_45_);}
	.st16{clip-path:url(#SVGID_47_);fill:url(#SVGID_48_);}
	.st17{clip-path:url(#SVGID_50_);fill:url(#SVGID_51_);}
	.st18{clip-path:url(#SVGID_53_);fill:url(#SVGID_54_);}
	.st19{clip-path:url(#SVGID_56_);fill:url(#SVGID_57_);}
	.st20{clip-path:url(#SVGID_59_);fill:url(#SVGID_60_);}
	.st21{clip-path:url(#SVGID_62_);fill:url(#SVGID_63_);}
	.st22{clip-path:url(#SVGID_65_);}
</style>
<rect y="0" class="st0" width="238.9" height="76.4"/>
<g>
	<defs>
		<path id="SVGID_1_" d="M10,8.4C9.6,8.6,9.4,9,9.4,9.5c0,0,0,1.7,0,4.4L32.5,37L43,26.5L11.3,8.3c-0.2-0.1-0.4-0.2-0.6-0.2
			C10.5,8.2,10.2,8.2,10,8.4"/>
	</defs>
	<clipPath id="SVGID_2_">
		<use xlink:href="#SVGID_1_"  style="overflow:visible;"/>
	</clipPath>
	
		<linearGradient id="SVGID_3_" gradientUnits="userSpaceOnUse" x1="-1.786337e-05" y1="76.3531" x2="1" y2="76.3531" gradientTransform="matrix(33.6339 0 0 33.6339 9.4006 -2545.4753)">
		<stop  offset="0" style="stop-color:#63BE6B"/>
		<stop  offset="0.506" style="stop-color:#5BBC6A"/>
		<stop  offset="1" style="stop-color:#4AB96A"/>
	</linearGradient>
	<rect x="9.4" y="8.2" class="st1" width="33.6" height="28.8"/>
</g>
<g>
	<defs>
		<path id="SVGID_4_" d="M9.6,59.9L32.5,37L9.4,13.9C9.5,23.8,9.6,47.9,9.6,59.9"/>
	</defs>
	<clipPath id="SVGID_5_">
		<use xlink:href="#SVGID_4_"  style="overflow:visible;"/>
	</clipPath>
	
		<linearGradient id="SVGID_6_" gradientUnits="userSpaceOnUse" x1="3.025114e-05" y1="76.3531" x2="1" y2="76.3531" gradientTransform="matrix(23.108 0 0 23.108 9.4263 -1727.4857)">
		<stop  offset="0" style="stop-color:#3EC6F2"/>
		<stop  offset="1" style="stop-color:#45AFE3"/>
	</linearGradient>
	<rect x="9.4" y="13.9" class="st2" width="23.1" height="46"/>
</g>
<g>
	<defs>
		<path id="SVGID_7_" d="M32.5,37l11.9,11.9l16.8-9.8c0.4-0.2,0.6-0.7,0.6-1.1c0-0.5-0.3-0.9-0.7-1.1L43,26.5L32.5,37z"/>
	</defs>
	<clipPath id="SVGID_8_">
		<use xlink:href="#SVGID_7_"  style="overflow:visible;"/>
	</clipPath>
	
		<linearGradient id="SVGID_9_" gradientUnits="userSpaceOnUse" x1="1.352711e-05" y1="76.3531" x2="1" y2="76.3531" gradientTransform="matrix(29.3284 0 0 29.3284 32.5086 -2201.655)">
		<stop  offset="0" style="stop-color:#FAA51A"/>
		<stop  offset="0.387" style="stop-color:#FAB716"/>
		<stop  offset="0.741" style="stop-color:#FAC412"/>
		<stop  offset="1" style="stop-color:#FAC80F"/>
	</linearGradient>
	<rect x="32.5" y="26.5" class="st3" width="29.3" height="22.4"/>
</g>
<g>
	<defs>
		<path id="SVGID_10_" d="M9.6,59.9c0,4.3,0,7,0,7c0,0.5,0.2,0.9,0.6,1.1c0.4,0.2,0.9,0.2,1.3,0l32.8-19.1L32.5,37L9.6,59.9z"/>
	</defs>
	<clipPath id="SVGID_11_">
		<use xlink:href="#SVGID_10_"  style="overflow:visible;"/>
	</clipPath>
	
		<linearGradient id="SVGID_12_" gradientUnits="userSpaceOnUse" x1="-2.851889e-06" y1="76.354" x2="1" y2="76.354" gradientTransform="matrix(34.7777 0 0 34.7777 9.6191 -2602.8015)">
		<stop  offset="0" style="stop-color:#EC3B50"/>
		<stop  offset="1" style="stop-color:#E7515B"/>
	</linearGradient>
	<rect x="9.6" y="37" class="st4" width="34.8" height="31.2"/>
</g>
<g>
	<defs>
		<polygon id="SVGID_13_" points="119.1,15.7 119.1,16.9 122.3,16.9 122.3,27.4 123.8,27.4 123.8,16.9 127,16.9 127,15.7 		"/>
	</defs>
	<clipPath id="SVGID_14_">
		<use xlink:href="#SVGID_13_"  style="overflow:visible;"/>
	</clipPath>
	
		<linearGradient id="SVGID_15_" gradientUnits="userSpaceOnUse" x1="0" y1="76.4534" x2="1" y2="76.4534" gradientTransform="matrix(166.2083 0 0 -166.2083 66.4767 12728.6963)">
		<stop  offset="0" style="stop-color:#FFFFFF"/>
		<stop  offset="1" style="stop-color:#231F20"/>
	</linearGradient>
	<rect x="119.1" y="15.7" class="st5" width="7.9" height="11.7"/>
</g>
<g>
	<defs>
		<path id="SVGID_16_" d="M130.6,25.8c-0.4-0.2-0.7-0.4-1-0.6c-0.3-0.3-0.5-0.6-0.7-1c-0.2-0.4-0.3-0.9-0.3-1.4c0-0.5,0.1-1,0.3-1.4
			c0.2-0.4,0.4-0.7,0.7-1c0.3-0.3,0.6-0.5,1-0.6s0.8-0.2,1.2-0.2c0.4,0,0.8,0.1,1.2,0.2c0.4,0.1,0.7,0.4,1,0.6
			c0.3,0.3,0.5,0.6,0.7,1c0.2,0.4,0.3,0.9,0.3,1.4c0,0.5-0.1,1-0.3,1.4c-0.2,0.4-0.4,0.8-0.7,1c-0.3,0.3-0.6,0.5-1,0.6
			c-0.4,0.1-0.8,0.2-1.2,0.2C131.4,26,131,26,130.6,25.8 M129.8,18.5c-0.5,0.2-1,0.5-1.4,0.9c-0.4,0.4-0.7,0.9-0.9,1.4
			c-0.2,0.6-0.3,1.2-0.3,1.9c0,0.7,0.1,1.3,0.3,1.9c0.2,0.6,0.5,1.1,0.9,1.5c0.4,0.4,0.8,0.7,1.4,0.9c0.5,0.2,1.1,0.3,1.7,0.3
			c0.4,0,0.8,0,1.2-0.1c0.4-0.1,0.7-0.2,1-0.4c0.3-0.2,0.5-0.4,0.8-0.6c0.2-0.2,0.4-0.5,0.5-0.7v1.8h1.5v-9.2h-1.5V20
			c-0.1-0.2-0.3-0.5-0.5-0.7c-0.2-0.2-0.5-0.4-0.7-0.6c-0.3-0.2-0.6-0.3-1-0.4c-0.4-0.1-0.8-0.2-1.2-0.2
			C130.9,18.1,130.3,18.3,129.8,18.5 M131.8,13.7c-0.2,0-0.4,0.1-0.6,0.2c-0.2,0.1-0.3,0.3-0.4,0.4c-0.1,0.2-0.2,0.4-0.2,0.6h1
			c0-0.2,0.1-0.3,0.3-0.4c0.1-0.1,0.3-0.1,0.5-0.1c0.2,0,0.3,0,0.4,0.1c0.1,0.1,0.2,0.2,0.2,0.4c0,0.2-0.1,0.4-0.2,0.5
			c-0.1,0.1-0.4,0.2-0.9,0.2l0,1.1h0.9l0-0.4c0.1,0,0.3,0,0.4-0.1c0.1-0.1,0.3-0.1,0.4-0.2c0.1-0.1,0.2-0.3,0.3-0.4
			c0.1-0.2,0.1-0.4,0.1-0.6c0-0.4-0.2-0.8-0.5-1c-0.3-0.2-0.7-0.4-1.1-0.4C132.2,13.6,132,13.6,131.8,13.7"/>
	</defs>
	<clipPath id="SVGID_17_">
		<use xlink:href="#SVGID_16_"  style="overflow:visible;"/>
	</clipPath>
	
		<linearGradient id="SVGID_18_" gradientUnits="userSpaceOnUse" x1="0" y1="76.4595" x2="1" y2="76.4595" gradientTransform="matrix(166.2083 0 0 -166.2083 66.4767 12728.6963)">
		<stop  offset="0" style="stop-color:#FFFFFF"/>
		<stop  offset="1" style="stop-color:#231F20"/>
	</linearGradient>
	<rect x="127.1" y="13.6" class="st6" width="9.3" height="13.8"/>
</g>
<g>
	<defs>
		<path id="SVGID_19_" d="M139.1,27.4h1.5v-9.2h-1.5V27.4z M139.1,14.8c-0.2,0.2-0.3,0.5-0.3,0.8c0,0.3,0.1,0.6,0.3,0.8
			c0.2,0.2,0.5,0.3,0.8,0.3c0.3,0,0.5-0.1,0.7-0.3c0.2-0.2,0.3-0.5,0.3-0.8c0-0.3-0.1-0.6-0.3-0.8c-0.2-0.2-0.5-0.3-0.7-0.3
			C139.5,14.5,139.3,14.6,139.1,14.8"/>
	</defs>
	<clipPath id="SVGID_20_">
		<use xlink:href="#SVGID_19_"  style="overflow:visible;"/>
	</clipPath>
	
		<linearGradient id="SVGID_21_" gradientUnits="userSpaceOnUse" x1="0" y1="76.4569" x2="1" y2="76.4569" gradientTransform="matrix(166.2083 0 0 -166.2083 66.4767 12728.6963)">
		<stop  offset="0" style="stop-color:#FFFFFF"/>
		<stop  offset="1" style="stop-color:#231F20"/>
	</linearGradient>
	<rect x="138.8" y="14.5" class="st7" width="2.2" height="12.9"/>
</g>
<g>
	<defs>
		<path id="SVGID_22_" d="M148,15.8v2.3h-1.2v1.3h1.2v5.4c0,0.9,0.2,1.6,0.7,2c0.4,0.4,1.1,0.6,1.9,0.6h1.4v-1.3h-1.1
			c-0.5,0-0.8-0.1-1-0.3c-0.2-0.2-0.3-0.5-0.3-1v-5.4h2.4v-1.3h-2.4v-2.3H148z"/>
	</defs>
	<clipPath id="SVGID_23_">
		<use xlink:href="#SVGID_22_"  style="overflow:visible;"/>
	</clipPath>
	
		<linearGradient id="SVGID_24_" gradientUnits="userSpaceOnUse" x1="0" y1="76.4528" x2="1" y2="76.4528" gradientTransform="matrix(166.2083 0 0 -166.2083 66.4767 12728.6963)">
		<stop  offset="0" style="stop-color:#FFFFFF"/>
		<stop  offset="1" style="stop-color:#231F20"/>
	</linearGradient>
	<rect x="146.8" y="15.8" class="st8" width="5.1" height="11.5"/>
</g>
<g>
	<defs>
		<path id="SVGID_25_" d="M156.4,18.6c-0.5,0.3-0.9,0.7-1.1,1.3v-1.7h-1.5v9.2h1.5v-4.9c0-0.5,0.1-1,0.2-1.3
			c0.1-0.3,0.3-0.6,0.5-0.8c0.2-0.2,0.5-0.4,0.8-0.5c0.3-0.1,0.7-0.1,1-0.1h0.4v-1.6C157.6,18.1,156.9,18.3,156.4,18.6"/>
	</defs>
	<clipPath id="SVGID_26_">
		<use xlink:href="#SVGID_25_"  style="overflow:visible;"/>
	</clipPath>
	
		<linearGradient id="SVGID_27_" gradientUnits="userSpaceOnUse" x1="0" y1="76.4459" x2="1" y2="76.4459" gradientTransform="matrix(166.2083 0 0 -166.2083 66.4767 12728.6963)">
		<stop  offset="0" style="stop-color:#FFFFFF"/>
		<stop  offset="1" style="stop-color:#231F20"/>
	</linearGradient>
	<rect x="153.8" y="18.1" class="st9" width="4.5" height="9.2"/>
</g>
<g>
	<defs>
		<path id="SVGID_28_" d="M161.4,20.9c0.2-0.3,0.4-0.6,0.6-0.8c0.3-0.2,0.6-0.4,0.9-0.5c0.3-0.1,0.7-0.2,1.1-0.2
			c0.4,0,0.8,0.1,1.1,0.2c0.4,0.1,0.7,0.3,0.9,0.5c0.3,0.2,0.5,0.5,0.6,0.8c0.2,0.3,0.2,0.7,0.2,1.1h-5.8
			C161.1,21.6,161.2,21.2,161.4,20.9 M162.2,18.5c-0.6,0.2-1,0.5-1.4,0.9c-0.4,0.4-0.7,0.9-0.9,1.5c-0.2,0.6-0.3,1.2-0.3,1.9
			c0,0.7,0.1,1.3,0.3,1.9c0.2,0.6,0.5,1.1,0.9,1.5c0.4,0.4,0.9,0.7,1.4,0.9c0.6,0.2,1.2,0.3,1.8,0.3c0.6,0,1.1-0.1,1.6-0.2
			c0.5-0.2,0.9-0.4,1.2-0.6c0.4-0.3,0.6-0.6,0.9-0.9c0.2-0.4,0.4-0.8,0.5-1.2h-1.6c-0.2,0.5-0.5,0.9-0.9,1.2c-0.4,0.3-1,0.5-1.7,0.5
			c-0.4,0-0.8-0.1-1.1-0.2c-0.3-0.1-0.7-0.3-0.9-0.6c-0.3-0.2-0.5-0.5-0.7-0.9c-0.2-0.4-0.3-0.8-0.3-1.2h7.4c0-0.1,0-0.3,0-0.4
			c0-0.1,0-0.3,0-0.4c0-0.6-0.1-1.1-0.3-1.7c-0.2-0.5-0.5-1-0.9-1.3c-0.4-0.4-0.9-0.7-1.4-0.9c-0.5-0.2-1.2-0.3-1.8-0.3
			C163.4,18.1,162.7,18.3,162.2,18.5 M161.6,16.3l0.8,0.9l1.7-1.1l1.7,1.1l0.8-0.9l-2.5-1.6L161.6,16.3z"/>
	</defs>
	<clipPath id="SVGID_29_">
		<use xlink:href="#SVGID_28_"  style="overflow:visible;"/>
	</clipPath>
	
		<linearGradient id="SVGID_30_" gradientUnits="userSpaceOnUse" x1="0" y1="76.4563" x2="1" y2="76.4563" gradientTransform="matrix(166.2083 0 0 -166.2083 66.4767 12728.6963)">
		<stop  offset="0" style="stop-color:#FFFFFF"/>
		<stop  offset="1" style="stop-color:#231F20"/>
	</linearGradient>
	<rect x="159.5" y="14.7" class="st10" width="9" height="12.7"/>
</g>
<g>
	<defs>
		<path id="SVGID_31_" d="M173.2,18.5c-0.5,0.3-0.9,0.7-1.2,1.2v-1.6h-1.5v9.2h1.5v-5c0-1,0.2-1.7,0.7-2.2c0.5-0.5,1.1-0.7,1.9-0.7
			c0.8,0,1.4,0.2,1.9,0.7c0.5,0.5,0.7,1.2,0.7,2.1v5.1h1.5V22c0-0.6-0.1-1.2-0.3-1.7c-0.2-0.5-0.5-0.9-0.8-1.2
			c-0.3-0.3-0.7-0.6-1.2-0.7c-0.5-0.2-1-0.2-1.5-0.2C174.3,18.1,173.7,18.3,173.2,18.5"/>
	</defs>
	<clipPath id="SVGID_32_">
		<use xlink:href="#SVGID_31_"  style="overflow:visible;"/>
	</clipPath>
	
		<linearGradient id="SVGID_33_" gradientUnits="userSpaceOnUse" x1="0" y1="76.4459" x2="1" y2="76.4459" gradientTransform="matrix(166.2083 0 0 -166.2083 66.4767 12728.6963)">
		<stop  offset="0" style="stop-color:#FFFFFF"/>
		<stop  offset="1" style="stop-color:#231F20"/>
	</linearGradient>
	<rect x="170.5" y="18.1" class="st11" width="8.2" height="9.2"/>
</g>
<g>
	<defs>
		<path id="SVGID_34_" d="M72.5,36.6c-1.2,0.5-2.3,1.2-3.1,2c-0.9,0.9-1.6,1.9-2.1,3.1c-0.5,1.2-0.8,2.5-0.8,3.9
			c0,1.4,0.3,2.7,0.8,3.9c0.5,1.2,1.2,2.2,2.1,3.1c0.9,0.9,1.9,1.5,3.1,2c1.2,0.5,2.5,0.7,3.9,0.7c1.3,0,2.5-0.2,3.6-0.7
			c1.1-0.4,2.1-1,2.9-1.8c0.8-0.8,1.5-1.6,2.1-2.7c0.5-1,0.9-2.1,1-3.2v-2.5H75.3v2.5h7.3c-0.2,1.6-0.9,3-2,3.9
			c-1.1,1-2.5,1.5-4.3,1.5c-1,0-1.9-0.2-2.7-0.5c-0.8-0.3-1.5-0.8-2.1-1.4c-0.6-0.6-1-1.3-1.4-2.2c-0.3-0.8-0.5-1.8-0.5-2.8
			c0-1,0.2-2,0.5-2.8c0.3-0.8,0.8-1.6,1.4-2.2c0.6-0.6,1.3-1.1,2.1-1.4c0.8-0.3,1.7-0.5,2.7-0.5c1.2,0,2.2,0.2,3.1,0.7
			c0.9,0.5,1.6,1.1,2.1,2.1h3.8c-0.4-0.9-0.9-1.7-1.5-2.4c-0.6-0.7-1.3-1.3-2.1-1.8c-0.8-0.5-1.6-0.8-2.6-1.1
			c-0.9-0.2-1.9-0.4-2.9-0.4C75,35.9,73.7,36.1,72.5,36.6"/>
	</defs>
	<clipPath id="SVGID_35_">
		<use xlink:href="#SVGID_34_"  style="overflow:visible;"/>
	</clipPath>
	
		<linearGradient id="SVGID_36_" gradientUnits="userSpaceOnUse" x1="1.698397e-06" y1="76.3083" x2="1" y2="76.3083" gradientTransform="matrix(166.2083 0 0 -166.2083 66.4767 12728.6963)">
		<stop  offset="0" style="stop-color:#FFFFFF"/>
		<stop  offset="1" style="stop-color:#231F20"/>
	</linearGradient>
	<rect x="66.5" y="35.9" class="st12" width="19.6" height="19.5"/>
</g>
<g>
	<defs>
		<path id="SVGID_37_" d="M94.2,52.3c-0.5-0.2-1-0.5-1.4-0.9c-0.4-0.4-0.7-0.9-1-1.6c-0.2-0.6-0.4-1.4-0.4-2.2
			c0-0.8,0.1-1.6,0.4-2.2c0.3-0.6,0.6-1.1,1-1.5c0.4-0.4,0.9-0.7,1.5-0.9c0.6-0.2,1.1-0.3,1.7-0.3c0.6,0,1.2,0.1,1.7,0.3
			c0.6,0.2,1.1,0.5,1.5,0.9c0.4,0.4,0.8,0.9,1,1.5c0.3,0.6,0.4,1.3,0.4,2.2c0,0.8-0.1,1.6-0.4,2.2c-0.3,0.6-0.6,1.1-1.1,1.6
			c-0.4,0.4-0.9,0.7-1.5,0.9c-0.6,0.2-1.2,0.3-1.7,0.3C95.3,52.6,94.7,52.5,94.2,52.3 M92.9,40.4c-1,0.4-1.8,0.9-2.5,1.6
			c-0.7,0.7-1.3,1.5-1.7,2.4c-0.4,1-0.6,2-0.6,3.2c0,1.2,0.2,2.2,0.6,3.2c0.4,1,0.9,1.8,1.6,2.4c0.7,0.7,1.5,1.2,2.4,1.6
			c0.9,0.4,2,0.5,3.1,0.5c1.1,0,2.1-0.2,3.1-0.5c1-0.4,1.8-0.9,2.5-1.6c0.7-0.7,1.3-1.5,1.7-2.4c0.4-1,0.6-2,0.6-3.2
			c0-1.2-0.2-2.2-0.6-3.2c-0.4-1-1-1.8-1.7-2.4c-0.7-0.7-1.5-1.2-2.5-1.6c-1-0.4-2-0.5-3.1-0.5S93.9,40.1,92.9,40.4"/>
	</defs>
	<clipPath id="SVGID_38_">
		<use xlink:href="#SVGID_37_"  style="overflow:visible;"/>
	</clipPath>
	
		<linearGradient id="SVGID_39_" gradientUnits="userSpaceOnUse" x1="0" y1="76.2962" x2="1" y2="76.2962" gradientTransform="matrix(166.2083 0 0 -166.2083 66.4767 12728.6963)">
		<stop  offset="0" style="stop-color:#FFFFFF"/>
		<stop  offset="1" style="stop-color:#231F20"/>
	</linearGradient>
	<rect x="88.1" y="39.9" class="st13" width="15.7" height="15.5"/>
</g>
<g>
	<defs>
		<path id="SVGID_40_" d="M112,52.3c-0.5-0.2-1-0.5-1.4-0.9c-0.4-0.4-0.7-0.9-1-1.6c-0.2-0.6-0.4-1.4-0.4-2.2c0-0.8,0.1-1.6,0.4-2.2
			c0.3-0.6,0.6-1.1,1-1.5c0.4-0.4,0.9-0.7,1.5-0.9c0.5-0.2,1.1-0.3,1.7-0.3s1.2,0.1,1.7,0.3c0.6,0.2,1.1,0.5,1.5,0.9
			c0.4,0.4,0.8,0.9,1,1.5c0.3,0.6,0.4,1.3,0.4,2.2c0,0.8-0.1,1.6-0.4,2.2c-0.3,0.6-0.6,1.1-1.1,1.6c-0.4,0.4-0.9,0.7-1.5,0.9
			c-0.6,0.2-1.2,0.3-1.7,0.3C113.1,52.6,112.6,52.5,112,52.3 M110.8,40.4c-1,0.4-1.8,0.9-2.5,1.6c-0.7,0.7-1.3,1.5-1.7,2.4
			c-0.4,1-0.6,2-0.6,3.2c0,1.2,0.2,2.2,0.6,3.2c0.4,1,0.9,1.8,1.6,2.4c0.7,0.7,1.5,1.2,2.4,1.6c0.9,0.4,2,0.5,3.1,0.5
			c1.1,0,2.1-0.2,3.1-0.5c1-0.4,1.8-0.9,2.5-1.6c0.7-0.7,1.3-1.5,1.7-2.4c0.4-1,0.6-2,0.6-3.2c0-1.2-0.2-2.2-0.6-3.2
			c-0.4-1-1-1.8-1.7-2.4c-0.7-0.7-1.5-1.2-2.5-1.6c-1-0.4-2-0.5-3.1-0.5C112.8,39.9,111.7,40.1,110.8,40.4"/>
	</defs>
	<clipPath id="SVGID_41_">
		<use xlink:href="#SVGID_40_"  style="overflow:visible;"/>
	</clipPath>
	
		<linearGradient id="SVGID_42_" gradientUnits="userSpaceOnUse" x1="0" y1="76.2962" x2="1" y2="76.2962" gradientTransform="matrix(166.2083 0 0 -166.2083 66.4767 12728.6963)">
		<stop  offset="0" style="stop-color:#FFFFFF"/>
		<stop  offset="1" style="stop-color:#231F20"/>
	</linearGradient>
	<rect x="106" y="39.9" class="st14" width="15.7" height="15.5"/>
</g>
<g>
	<defs>
		<path id="SVGID_43_" d="M130,52.3c-0.6-0.2-1.1-0.5-1.5-1c-0.4-0.4-0.8-1-1-1.6c-0.3-0.6-0.4-1.3-0.4-2.1c0-0.8,0.1-1.5,0.4-2.1
			c0.3-0.6,0.6-1.1,1-1.5c0.4-0.4,0.9-0.7,1.5-0.9s1.1-0.3,1.7-0.3s1.2,0.1,1.7,0.3c0.6,0.2,1.1,0.5,1.5,1c0.4,0.4,0.8,0.9,1,1.6
			c0.3,0.6,0.4,1.3,0.4,2.1c0,0.8-0.1,1.5-0.4,2.1c-0.3,0.6-0.6,1.1-1,1.6c-0.4,0.4-0.9,0.7-1.5,1c-0.6,0.2-1.1,0.3-1.7,0.3
			S130.6,52.5,130,52.3 M128.3,40.4c-0.9,0.4-1.7,0.9-2.3,1.6c-0.7,0.7-1.2,1.5-1.6,2.4c-0.4,0.9-0.6,2-0.6,3.2
			c0,1.2,0.2,2.2,0.6,3.2c0.4,1,0.9,1.8,1.6,2.5c0.7,0.7,1.4,1.2,2.3,1.6c0.9,0.4,1.8,0.6,2.8,0.6c0.6,0,1.2-0.1,1.8-0.2
			c0.5-0.1,1-0.3,1.5-0.6c0.4-0.2,0.8-0.5,1.2-0.8c0.4-0.3,0.7-0.6,0.9-1v2.6c0,0.8-0.1,1.4-0.3,2c-0.2,0.6-0.5,1.1-0.9,1.4
			c-0.4,0.4-0.8,0.7-1.4,0.9c-0.5,0.2-1.1,0.3-1.7,0.3c-1.1,0-2.1-0.2-2.9-0.7c-0.8-0.5-1.3-1.1-1.5-1.9h-3.2
			c0.1,0.9,0.3,1.6,0.8,2.3c0.4,0.7,1,1.2,1.6,1.7c0.7,0.5,1.4,0.8,2.3,1.1c0.9,0.3,1.8,0.4,2.9,0.4c1.2,0,2.3-0.2,3.2-0.6
			c0.9-0.4,1.7-0.9,2.4-1.5c0.6-0.6,1.1-1.4,1.5-2.3c0.3-0.9,0.5-1.9,0.5-2.9V39.9h-3.2v2.4c-0.5-0.6-1.2-1.2-2.1-1.7
			c-0.9-0.5-2-0.7-3.3-0.7C130.1,39.9,129.1,40.1,128.3,40.4"/>
	</defs>
	<clipPath id="SVGID_44_">
		<use xlink:href="#SVGID_43_"  style="overflow:visible;"/>
	</clipPath>
	
		<linearGradient id="SVGID_45_" gradientUnits="userSpaceOnUse" x1="0" y1="76.274" x2="1" y2="76.274" gradientTransform="matrix(166.2083 0 0 -166.2083 66.4767 12728.6963)">
		<stop  offset="0" style="stop-color:#FFFFFF"/>
		<stop  offset="1" style="stop-color:#231F20"/>
	</linearGradient>
	<rect x="123.8" y="39.9" class="st15" width="15.8" height="22.8"/>
</g>
<g>
	<defs>
		<rect id="SVGID_46_" x="143.9" y="34.6" width="3.2" height="20.7"/>
	</defs>
	<clipPath id="SVGID_47_">
		<use xlink:href="#SVGID_46_"  style="overflow:visible;"/>
	</clipPath>
	
		<linearGradient id="SVGID_48_" gradientUnits="userSpaceOnUse" x1="0" y1="76.3121" x2="1" y2="76.3121" gradientTransform="matrix(166.2083 0 0 -166.2083 66.4767 12728.6963)">
		<stop  offset="0" style="stop-color:#FFFFFF"/>
		<stop  offset="1" style="stop-color:#231F20"/>
	</linearGradient>
	<rect x="143.9" y="34.6" class="st16" width="3.2" height="20.7"/>
</g>
<g>
	<defs>
		<path id="SVGID_49_" d="M154.9,43.5c0.8-0.6,1.7-0.9,2.8-0.9c0.6,0,1.2,0.1,1.7,0.2c0.5,0.2,1,0.4,1.4,0.7
			c0.4,0.3,0.7,0.7,0.9,1.1c0.2,0.4,0.3,0.9,0.4,1.4h-8.5C153.7,44.9,154.2,44.1,154.9,43.5 M154.8,40.4c-0.9,0.4-1.8,0.9-2.4,1.6
			c-0.7,0.7-1.2,1.5-1.6,2.4c-0.4,1-0.6,2-0.6,3.2c0,1.2,0.2,2.2,0.6,3.2c0.4,1,0.9,1.8,1.6,2.4c0.7,0.7,1.5,1.2,2.4,1.6
			c0.9,0.4,2,0.5,3.1,0.5c1,0,1.8-0.1,2.6-0.4c0.8-0.3,1.5-0.6,2-1c0.6-0.4,1.1-1,1.5-1.5c0.4-0.6,0.7-1.2,1-1.9h-3.4
			c-0.3,0.6-0.7,1.1-1.3,1.5c-0.6,0.4-1.3,0.6-2.3,0.6c-0.6,0-1.1-0.1-1.7-0.3c-0.5-0.2-1-0.5-1.3-0.8c-0.4-0.4-0.7-0.8-1-1.3
			c-0.2-0.5-0.4-1.1-0.4-1.7h11.8c0-0.2,0.1-0.5,0.1-0.7c0-0.2,0-0.5,0-0.7c0-1.1-0.2-2.1-0.6-3c-0.4-0.9-0.9-1.6-1.6-2.3
			c-0.7-0.6-1.4-1.1-2.4-1.5c-0.9-0.3-1.9-0.5-3-0.5C156.7,39.9,155.7,40.1,154.8,40.4"/>
	</defs>
	<clipPath id="SVGID_50_">
		<use xlink:href="#SVGID_49_"  style="overflow:visible;"/>
	</clipPath>
	
		<linearGradient id="SVGID_51_" gradientUnits="userSpaceOnUse" x1="0" y1="76.2962" x2="1" y2="76.2962" gradientTransform="matrix(166.2083 0 0 -166.2083 66.4767 12728.6963)">
		<stop  offset="0" style="stop-color:#FFFFFF"/>
		<stop  offset="1" style="stop-color:#231F20"/>
	</linearGradient>
	<rect x="150.2" y="39.9" class="st17" width="15.2" height="15.5"/>
</g>
<g>
	<defs>
		<path id="SVGID_52_" d="M179,38.5h3.5c1.2,0,2.2,0.3,2.7,0.8c0.6,0.6,0.9,1.3,0.9,2.4c0,1-0.3,1.8-0.9,2.3
			c-0.6,0.6-1.5,0.8-2.7,0.8H179V38.5z M175.8,35.9v19.5h3.2v-7.9h3.5c1.3,0,2.3-0.2,3.2-0.5c0.9-0.3,1.6-0.8,2.1-1.3
			c0.5-0.5,0.9-1.2,1.2-1.8c0.2-0.7,0.4-1.4,0.4-2.1c0-0.8-0.1-1.5-0.4-2.2c-0.3-0.7-0.7-1.3-1.3-1.8c-0.6-0.5-1.3-0.9-2.2-1.2
			c-0.9-0.3-1.9-0.5-3-0.5H175.8z"/>
	</defs>
	<clipPath id="SVGID_53_">
		<use xlink:href="#SVGID_52_"  style="overflow:visible;"/>
	</clipPath>
	
		<linearGradient id="SVGID_54_" gradientUnits="userSpaceOnUse" x1="0" y1="76.3083" x2="1" y2="76.3083" gradientTransform="matrix(166.2083 0 0 -166.2083 66.4767 12728.6963)">
		<stop  offset="0" style="stop-color:#FFFFFF"/>
		<stop  offset="1" style="stop-color:#231F20"/>
	</linearGradient>
	<rect x="175.8" y="35.9" class="st18" width="13.6" height="19.5"/>
</g>
<g>
	<defs>
		<rect id="SVGID_55_" x="192.4" y="34.6" width="3.2" height="20.7"/>
	</defs>
	<clipPath id="SVGID_56_">
		<use xlink:href="#SVGID_55_"  style="overflow:visible;"/>
	</clipPath>
	
		<linearGradient id="SVGID_57_" gradientUnits="userSpaceOnUse" x1="0" y1="76.3121" x2="1" y2="76.3121" gradientTransform="matrix(166.2083 0 0 -166.2083 66.4767 12728.6963)">
		<stop  offset="0" style="stop-color:#FFFFFF"/>
		<stop  offset="1" style="stop-color:#231F20"/>
	</linearGradient>
	<rect x="192.4" y="34.6" class="st19" width="3.2" height="20.7"/>
</g>
<g>
	<defs>
		<path id="SVGID_58_" d="M205,52.3c-0.6-0.2-1.1-0.5-1.5-1c-0.4-0.4-0.8-1-1-1.6c-0.3-0.6-0.4-1.3-0.4-2.1c0-0.8,0.1-1.5,0.4-2.1
			c0.3-0.6,0.6-1.1,1-1.5c0.4-0.4,0.9-0.7,1.5-0.9c0.6-0.2,1.1-0.3,1.7-0.3c0.6,0,1.2,0.1,1.7,0.3s1.1,0.5,1.5,1
			c0.4,0.4,0.8,0.9,1,1.6c0.3,0.6,0.4,1.3,0.4,2.1c0,0.8-0.1,1.5-0.4,2.1c-0.3,0.6-0.6,1.1-1,1.6c-0.4,0.4-0.9,0.7-1.5,1
			c-0.6,0.2-1.1,0.3-1.7,0.3C206.1,52.6,205.5,52.5,205,52.3 M203.2,40.4c-0.9,0.4-1.7,0.9-2.3,1.6c-0.7,0.7-1.2,1.5-1.6,2.4
			c-0.4,0.9-0.6,2-0.6,3.2c0,1.2,0.2,2.2,0.6,3.2c0.4,1,0.9,1.8,1.5,2.5c0.7,0.7,1.4,1.2,2.3,1.6c0.9,0.4,1.8,0.6,2.8,0.6
			c0.6,0,1.2-0.1,1.8-0.2c0.6-0.1,1.1-0.3,1.5-0.6c0.4-0.2,0.8-0.5,1.2-0.8c0.4-0.3,0.7-0.6,0.9-0.9v2.5h3.2V39.9h-3.2v2.4
			c-0.5-0.6-1.2-1.2-2.1-1.7c-0.9-0.5-2-0.8-3.3-0.8C205,39.9,204.1,40.1,203.2,40.4"/>
	</defs>
	<clipPath id="SVGID_59_">
		<use xlink:href="#SVGID_58_"  style="overflow:visible;"/>
	</clipPath>
	
		<linearGradient id="SVGID_60_" gradientUnits="userSpaceOnUse" x1="0" y1="76.2962" x2="1" y2="76.2962" gradientTransform="matrix(166.2083 0 0 -166.2083 66.4767 12728.6963)">
		<stop  offset="0" style="stop-color:#FFFFFF"/>
		<stop  offset="1" style="stop-color:#231F20"/>
	</linearGradient>
	<rect x="198.8" y="39.9" class="st20" width="15.8" height="15.5"/>
</g>
<g>
	<defs>
		<polygon id="SVGID_61_" points="229.4,39.9 224.9,51.8 220.5,39.9 217,39.9 223.1,55.2 219.9,62.7 223.2,62.7 232.7,39.9 		"/>
	</defs>
	<clipPath id="SVGID_62_">
		<use xlink:href="#SVGID_61_"  style="overflow:visible;"/>
	</clipPath>
	
		<linearGradient id="SVGID_63_" gradientUnits="userSpaceOnUse" x1="0" y1="76.2741" x2="1" y2="76.2741" gradientTransform="matrix(166.2083 0 0 -166.2083 66.4767 12728.6963)">
		<stop  offset="0" style="stop-color:#FFFFFF"/>
		<stop  offset="1" style="stop-color:#231F20"/>
	</linearGradient>
	<rect x="217" y="39.9" class="st21" width="15.7" height="22.8"/>
</g>
<g>
	<defs>
		<rect id="SVGID_64_" y="0" width="238.9" height="76.4"/>
	</defs>
	<clipPath id="SVGID_65_">
		<use xlink:href="#SVGID_64_"  style="overflow:visible;"/>
	</clipPath>
	<polygon class="st22" points="119.1,15.7 127,15.7 127,16.9 123.8,16.9 123.8,27.4 122.3,27.4 122.3,16.9 119.1,16.9 	"/>
	<path class="st22" d="M127.1,22.7c0-0.7,0.1-1.3,0.3-1.9c0.2-0.6,0.5-1,0.9-1.4c0.4-0.4,0.9-0.7,1.4-0.9c0.5-0.2,1.1-0.3,1.7-0.3
		c0.4,0,0.8,0.1,1.2,0.2c0.4,0.1,0.7,0.2,1,0.4c0.3,0.2,0.5,0.4,0.7,0.6c0.2,0.2,0.4,0.5,0.5,0.7v-1.8h1.5v9.2h-1.5v-1.8
		c-0.1,0.2-0.3,0.5-0.5,0.7c-0.2,0.2-0.5,0.4-0.8,0.6c-0.3,0.2-0.6,0.3-1,0.4c-0.4,0.1-0.8,0.1-1.2,0.1c-0.6,0-1.2-0.1-1.7-0.3
		c-0.5-0.2-1-0.5-1.4-0.9c-0.4-0.4-0.7-0.9-0.9-1.5C127.3,24.1,127.1,23.4,127.1,22.7 M134.9,22.7c0-0.5-0.1-1-0.3-1.4
		c-0.2-0.4-0.4-0.7-0.7-1c-0.3-0.3-0.6-0.5-1-0.6c-0.4-0.1-0.8-0.2-1.2-0.2c-0.4,0-0.8,0.1-1.2,0.2c-0.4,0.1-0.7,0.4-1,0.6
		c-0.3,0.3-0.5,0.6-0.7,1c-0.2,0.4-0.3,0.9-0.3,1.4c0,0.5,0.1,1,0.3,1.4c0.2,0.4,0.4,0.8,0.7,1c0.3,0.3,0.6,0.5,1,0.6
		c0.4,0.2,0.8,0.2,1.2,0.2c0.4,0,0.8-0.1,1.2-0.2c0.4-0.1,0.7-0.4,1-0.6s0.5-0.6,0.7-1C134.9,23.7,134.9,23.3,134.9,22.7 M130.7,15
		c0-0.2,0.1-0.5,0.2-0.6c0.1-0.2,0.2-0.3,0.4-0.4c0.2-0.1,0.3-0.2,0.6-0.2c0.2,0,0.4-0.1,0.6-0.1c0.4,0,0.8,0.1,1.1,0.4
		c0.3,0.3,0.5,0.6,0.5,1c0,0.2,0,0.4-0.1,0.6c-0.1,0.2-0.2,0.3-0.3,0.4c-0.1,0.1-0.2,0.2-0.4,0.2c-0.1,0.1-0.3,0.1-0.4,0.1l0,0.4
		h-0.9l0-1.1c0.4,0,0.7-0.1,0.9-0.2c0.1-0.1,0.2-0.3,0.2-0.5c0-0.2-0.1-0.3-0.2-0.4c-0.1-0.1-0.3-0.1-0.4-0.1c-0.2,0-0.3,0-0.5,0.1
		c-0.1,0.1-0.2,0.2-0.3,0.4H130.7z"/>
	<path class="st22" d="M139.9,16.7c-0.3,0-0.6-0.1-0.8-0.3c-0.2-0.2-0.3-0.5-0.3-0.8c0-0.3,0.1-0.6,0.3-0.8c0.2-0.2,0.5-0.3,0.8-0.3
		c0.3,0,0.5,0.1,0.7,0.3c0.2,0.2,0.3,0.5,0.3,0.8c0,0.3-0.1,0.6-0.3,0.8C140.4,16.6,140.1,16.7,139.9,16.7 M139.1,18.2h1.5v9.2h-1.5
		V18.2z"/>
	<path class="st22" d="M148,19.4h-1.2v-1.3h1.2v-2.3h1.5v2.3h2.4v1.3h-2.4v5.4c0,0.5,0.1,0.8,0.3,1s0.5,0.3,1,0.3h1.1v1.3h-1.4
		c-0.8,0-1.4-0.2-1.9-0.6c-0.4-0.4-0.7-1-0.7-2V19.4z"/>
	<path class="st22" d="M155.3,27.4h-1.5v-9.2h1.5v1.7c0.3-0.5,0.6-1,1.1-1.3c0.5-0.3,1.1-0.5,1.8-0.5v1.6h-0.4c-0.4,0-0.7,0-1,0.1
		c-0.3,0.1-0.6,0.2-0.8,0.5c-0.2,0.2-0.4,0.5-0.5,0.8c-0.1,0.3-0.2,0.8-0.2,1.3V27.4z"/>
	<path class="st22" d="M168.3,24.4c-0.1,0.4-0.3,0.8-0.5,1.2c-0.2,0.4-0.5,0.7-0.9,0.9c-0.4,0.3-0.8,0.5-1.2,0.6
		c-0.5,0.1-1,0.2-1.6,0.2c-0.7,0-1.3-0.1-1.8-0.3c-0.6-0.2-1-0.5-1.4-0.9c-0.4-0.4-0.7-0.9-0.9-1.5c-0.2-0.6-0.3-1.2-0.3-1.9
		s0.1-1.3,0.3-1.9c0.2-0.6,0.5-1,0.9-1.5c0.4-0.4,0.9-0.7,1.4-0.9c0.6-0.2,1.2-0.3,1.8-0.3s1.3,0.1,1.8,0.3c0.5,0.2,1,0.5,1.4,0.9
		c0.4,0.4,0.7,0.8,0.9,1.3c0.2,0.5,0.3,1.1,0.3,1.7c0,0.2,0,0.3,0,0.4c0,0.1,0,0.3,0,0.4H161c0,0.5,0.1,0.9,0.3,1.2
		c0.2,0.4,0.4,0.7,0.7,0.9c0.3,0.2,0.6,0.4,0.9,0.6c0.3,0.1,0.7,0.2,1.1,0.2c0.7,0,1.3-0.2,1.7-0.5c0.4-0.3,0.7-0.7,0.9-1.2H168.3z
		 M164,19.4c-0.4,0-0.7,0.1-1.1,0.2s-0.6,0.3-0.9,0.5c-0.3,0.2-0.5,0.5-0.6,0.8c-0.2,0.3-0.3,0.7-0.3,1.1h5.8c0-0.4-0.1-0.8-0.2-1.1
		c-0.2-0.3-0.4-0.6-0.6-0.8c-0.3-0.2-0.6-0.4-0.9-0.5S164.4,19.4,164,19.4 M166.6,16.3l-0.8,0.9l-1.7-1.1l-1.7,1.1l-0.8-0.9l2.5-1.6
		L166.6,16.3z"/>
	<path class="st22" d="M177.2,22.3c0-0.9-0.2-1.6-0.7-2.1c-0.5-0.5-1.1-0.7-1.9-0.7c-0.8,0-1.4,0.2-1.9,0.7
		c-0.5,0.5-0.7,1.2-0.7,2.2v5h-1.5v-9.2h1.5v1.6c0.3-0.5,0.7-0.9,1.2-1.2c0.5-0.3,1.1-0.4,1.7-0.4c0.5,0,1,0.1,1.5,0.2
		c0.5,0.2,0.9,0.4,1.2,0.7c0.3,0.3,0.6,0.7,0.8,1.2c0.2,0.5,0.3,1.1,0.3,1.7v5.3h-1.5V22.3z"/>
	<path class="st22" d="M76.4,35.9c1,0,2,0.1,2.9,0.4c0.9,0.2,1.8,0.6,2.6,1.1c0.8,0.5,1.5,1.1,2.1,1.8c0.6,0.7,1.1,1.5,1.5,2.4h-3.8
		c-0.5-0.9-1.2-1.6-2.1-2.1s-1.9-0.7-3.1-0.7c-1,0-1.9,0.2-2.7,0.5c-0.8,0.3-1.5,0.8-2.1,1.4c-0.6,0.6-1,1.3-1.4,2.2
		c-0.3,0.8-0.5,1.8-0.5,2.8c0,1,0.2,2,0.5,2.8s0.8,1.6,1.4,2.2c0.6,0.6,1.3,1.1,2.1,1.4c0.8,0.3,1.7,0.5,2.7,0.5
		c1.8,0,3.2-0.5,4.3-1.5c1.1-1,1.7-2.3,2-3.9h-7.3v-2.5H86V47c-0.1,1.1-0.5,2.2-1,3.2c-0.5,1-1.2,1.9-2.1,2.7
		c-0.8,0.8-1.8,1.4-2.9,1.8c-1.1,0.4-2.3,0.7-3.6,0.7c-1.4,0-2.7-0.2-3.9-0.7c-1.2-0.5-2.3-1.1-3.1-2c-0.9-0.9-1.6-1.9-2.1-3.1
		c-0.5-1.2-0.8-2.5-0.8-3.9c0-1.4,0.3-2.7,0.8-3.9c0.5-1.2,1.2-2.2,2.1-3.1c0.9-0.9,1.9-1.5,3.1-2C73.7,36.1,75,35.9,76.4,35.9"/>
	<path class="st22" d="M103.9,47.6c0,1.2-0.2,2.2-0.6,3.2c-0.4,1-1,1.8-1.7,2.4c-0.7,0.7-1.6,1.2-2.5,1.6c-1,0.4-2,0.5-3.1,0.5
		c-1.1,0-2.1-0.2-3.1-0.5c-0.9-0.4-1.8-0.9-2.4-1.6c-0.7-0.7-1.2-1.5-1.6-2.4c-0.4-1-0.6-2-0.6-3.2s0.2-2.2,0.6-3.2
		c0.4-1,1-1.8,1.7-2.4c0.7-0.7,1.5-1.2,2.5-1.6c1-0.4,2-0.5,3.1-0.5c1.1,0,2.1,0.2,3.1,0.5c1,0.4,1.8,0.9,2.5,1.6
		c0.7,0.7,1.3,1.5,1.7,2.4C103.7,45.4,103.9,46.4,103.9,47.6 M91.4,47.6c0,0.8,0.1,1.6,0.4,2.2c0.2,0.6,0.6,1.1,1,1.6
		c0.4,0.4,0.9,0.7,1.4,0.9c0.5,0.2,1.1,0.3,1.7,0.3c0.6,0,1.2-0.1,1.7-0.3c0.6-0.2,1.1-0.5,1.5-0.9c0.4-0.4,0.8-0.9,1.1-1.6
		c0.3-0.6,0.4-1.4,0.4-2.2c0-0.8-0.1-1.6-0.4-2.2c-0.3-0.6-0.6-1.1-1-1.5c-0.4-0.4-0.9-0.7-1.5-0.9c-0.6-0.2-1.1-0.3-1.7-0.3
		c-0.6,0-1.2,0.1-1.7,0.3c-0.6,0.2-1,0.5-1.5,0.9c-0.4,0.4-0.8,0.9-1,1.5C91.5,46.1,91.4,46.8,91.4,47.6"/>
	<path class="st22" d="M121.7,47.6c0,1.2-0.2,2.2-0.6,3.2c-0.4,1-1,1.8-1.7,2.4c-0.7,0.7-1.6,1.2-2.5,1.6c-1,0.4-2,0.5-3.1,0.5
		c-1.1,0-2.1-0.2-3.1-0.5c-0.9-0.4-1.8-0.9-2.4-1.6c-0.7-0.7-1.2-1.5-1.6-2.4c-0.4-1-0.6-2-0.6-3.2s0.2-2.2,0.6-3.2
		c0.4-1,1-1.8,1.7-2.4c0.7-0.7,1.5-1.2,2.5-1.6c1-0.4,2-0.5,3.1-0.5c1.1,0,2.1,0.2,3.1,0.5c1,0.4,1.8,0.9,2.5,1.6
		c0.7,0.7,1.3,1.5,1.7,2.4C121.5,45.4,121.7,46.4,121.7,47.6 M109.2,47.6c0,0.8,0.1,1.6,0.4,2.2c0.2,0.6,0.6,1.1,1,1.6
		c0.4,0.4,0.9,0.7,1.4,0.9c0.5,0.2,1.1,0.3,1.7,0.3c0.6,0,1.2-0.1,1.7-0.3c0.6-0.2,1.1-0.5,1.5-0.9c0.4-0.4,0.8-0.9,1.1-1.6
		c0.3-0.6,0.4-1.4,0.4-2.2c0-0.8-0.1-1.6-0.4-2.2c-0.3-0.6-0.6-1.1-1-1.5c-0.4-0.4-0.9-0.7-1.5-0.9c-0.6-0.2-1.1-0.3-1.7-0.3
		s-1.2,0.1-1.7,0.3c-0.6,0.2-1,0.5-1.5,0.9c-0.4,0.4-0.8,0.9-1,1.5C109.4,46.1,109.2,46.8,109.2,47.6"/>
	<path class="st22" d="M123.8,47.6c0-1.2,0.2-2.2,0.6-3.2c0.4-0.9,0.9-1.8,1.6-2.4c0.7-0.7,1.4-1.2,2.3-1.6c0.9-0.4,1.8-0.5,2.8-0.5
		c1.3,0,2.4,0.2,3.3,0.7c0.9,0.5,1.6,1.1,2.1,1.7v-2.4h3.2v15.5c0,1-0.2,2-0.5,2.9c-0.3,0.9-0.8,1.7-1.5,2.3
		c-0.6,0.6-1.4,1.2-2.4,1.5c-0.9,0.4-2,0.6-3.2,0.6c-1,0-2-0.1-2.9-0.4c-0.9-0.3-1.6-0.6-2.3-1.1c-0.7-0.5-1.2-1-1.6-1.7
		c-0.4-0.7-0.7-1.4-0.8-2.3h3.2c0.2,0.8,0.8,1.5,1.5,1.9c0.8,0.5,1.7,0.7,2.9,0.7c0.6,0,1.2-0.1,1.7-0.3c0.5-0.2,1-0.5,1.4-0.9
		c0.4-0.4,0.7-0.9,0.9-1.4c0.2-0.6,0.3-1.3,0.3-2v-2.6c-0.2,0.3-0.5,0.7-0.9,1c-0.4,0.3-0.8,0.6-1.2,0.8c-0.4,0.2-0.9,0.4-1.5,0.6
		c-0.5,0.2-1.1,0.2-1.8,0.2c-1,0-2-0.2-2.8-0.6c-0.9-0.4-1.7-0.9-2.3-1.6c-0.7-0.7-1.2-1.5-1.6-2.5C124,49.8,123.8,48.7,123.8,47.6
		 M136.4,47.6c0-0.8-0.1-1.5-0.4-2.1c-0.3-0.6-0.6-1.1-1-1.6c-0.4-0.4-0.9-0.7-1.5-1s-1.1-0.3-1.7-0.3c-0.6,0-1.2,0.1-1.7,0.3
		c-0.6,0.2-1.1,0.5-1.5,0.9c-0.4,0.4-0.8,0.9-1,1.5s-0.4,1.3-0.4,2.1c0,0.8,0.1,1.5,0.4,2.1s0.6,1.2,1,1.6c0.4,0.4,0.9,0.8,1.5,1
		c0.6,0.2,1.1,0.3,1.7,0.3c0.6,0,1.2-0.1,1.7-0.3c0.6-0.2,1.1-0.5,1.5-1c0.4-0.4,0.8-0.9,1-1.6C136.3,49.1,136.4,48.4,136.4,47.6"/>
	<rect x="143.9" y="34.6" class="st22" width="3.2" height="20.7"/>
	<path class="st22" d="M165,50.5c-0.2,0.7-0.5,1.3-1,1.9c-0.4,0.6-0.9,1.1-1.5,1.5c-0.6,0.4-1.3,0.8-2,1c-0.8,0.3-1.6,0.4-2.6,0.4
		c-1.1,0-2.1-0.2-3.1-0.5c-0.9-0.4-1.8-0.9-2.4-1.6c-0.7-0.7-1.2-1.5-1.6-2.4c-0.4-1-0.6-2-0.6-3.2s0.2-2.2,0.6-3.2
		c0.4-1,0.9-1.8,1.6-2.4c0.7-0.7,1.5-1.2,2.4-1.6c0.9-0.4,2-0.5,3.1-0.5c1.1,0,2.1,0.2,3,0.5c0.9,0.3,1.7,0.8,2.4,1.5
		c0.7,0.6,1.2,1.4,1.6,2.3c0.4,0.9,0.6,1.9,0.6,3c0,0.2,0,0.5,0,0.7c0,0.2,0,0.5-0.1,0.7h-11.8c0.1,0.6,0.2,1.2,0.4,1.7
		c0.2,0.5,0.6,0.9,1,1.3c0.4,0.4,0.8,0.6,1.3,0.8c0.5,0.2,1.1,0.3,1.7,0.3c1,0,1.8-0.2,2.3-0.6c0.6-0.4,1-0.9,1.3-1.5H165z
		 M157.7,42.6c-1.1,0-2,0.3-2.8,0.9c-0.8,0.6-1.3,1.4-1.4,2.5h8.5c0-0.5-0.1-1-0.4-1.4c-0.2-0.4-0.5-0.8-0.9-1.1
		c-0.4-0.3-0.8-0.5-1.4-0.7C158.9,42.7,158.3,42.6,157.7,42.6"/>
	<path class="st22" d="M189.4,41.7c0,0.7-0.1,1.4-0.4,2.1c-0.2,0.7-0.6,1.3-1.2,1.8c-0.5,0.5-1.2,1-2.1,1.3
		c-0.9,0.3-1.9,0.5-3.2,0.5H179v7.9h-3.2V35.9h6.7c1.2,0,2.2,0.2,3,0.5c0.9,0.3,1.6,0.7,2.2,1.2c0.6,0.5,1,1.1,1.3,1.8
		C189.3,40.2,189.4,40.9,189.4,41.7 M182.5,44.9c1.2,0,2.2-0.3,2.7-0.8c0.6-0.6,0.9-1.3,0.9-2.3c0-1-0.3-1.8-0.9-2.4
		c-0.6-0.6-1.5-0.8-2.7-0.8H179v6.4H182.5z"/>
	<rect x="192.4" y="34.6" class="st22" width="3.2" height="20.7"/>
	<path class="st22" d="M198.8,47.6c0-1.2,0.2-2.2,0.6-3.2c0.4-0.9,0.9-1.8,1.6-2.4c0.7-0.7,1.4-1.2,2.3-1.6c0.9-0.4,1.8-0.5,2.8-0.5
		c1.3,0,2.4,0.3,3.3,0.8c0.9,0.5,1.6,1.1,2.1,1.7v-2.4h3.2v15.4h-3.2v-2.5c-0.2,0.3-0.5,0.6-0.9,0.9c-0.4,0.3-0.8,0.6-1.2,0.8
		c-0.4,0.2-1,0.4-1.5,0.6c-0.6,0.1-1.2,0.2-1.8,0.2c-1,0-2-0.2-2.8-0.6c-0.9-0.4-1.6-0.9-2.3-1.6c-0.7-0.7-1.2-1.5-1.5-2.5
		C199,49.8,198.8,48.7,198.8,47.6 M211.4,47.6c0-0.8-0.1-1.5-0.4-2.1c-0.3-0.6-0.6-1.1-1-1.6c-0.4-0.4-0.9-0.7-1.5-1
		c-0.6-0.2-1.1-0.3-1.7-0.3s-1.2,0.1-1.7,0.3c-0.6,0.2-1.1,0.5-1.5,0.9c-0.4,0.4-0.8,0.9-1.1,1.5c-0.3,0.6-0.4,1.3-0.4,2.1
		c0,0.8,0.1,1.5,0.4,2.1c0.3,0.6,0.6,1.2,1.1,1.6c0.4,0.4,0.9,0.8,1.5,1c0.6,0.2,1.1,0.3,1.7,0.3s1.2-0.1,1.7-0.3
		c0.6-0.2,1.1-0.5,1.5-1c0.4-0.4,0.8-0.9,1-1.6C211.3,49.1,211.4,48.4,211.4,47.6"/>
	<polygon class="st22" points="229.4,39.9 232.7,39.9 223.2,62.7 219.9,62.7 223.1,55.2 217,39.9 220.5,39.9 224.9,51.8 	"/>
</g>
</svg>
