<?xml version="1.0" encoding="utf-8"?>
<!-- Generator: Adobe Illustrator 23.0.0, SVG Export Plug-In . SVG Version: 6.00 Build 0)  -->
<svg version="1.1" id="Layer_1" xmlns="http://www.w3.org/2000/svg" xmlns:xlink="http://www.w3.org/1999/xlink" x="0px" y="0px"
     viewBox="0 0 150.2 83.8" style="enable-background:new 0 0 150.2 83.8;" xml:space="preserve">
<style type="text/css">
	.st0{fill:#BABABA;}
	.st1{fill:#FFFFFF;}
	.st2{fill:#FCF0E3;}
	.st3{fill:#F16F67;}
	.st4{fill:#FFB54A;}
	.st5{fill:#4E69FF;}
	.st6{fill:#4C4438;}
	.st7{fill:#404AA9;}
	.st8{fill:#1C887B;}
	.st9{fill:#FDB724;}
	.st10{fill:#D14D4A;}
	.st11{fill:#FEEDD9;}
	.st12{clip-path:url(#SVGID_2_);}
	.st13{fill:url(#SVGID_3_);}
	.st14{fill:url(#SVGID_4_);}
	.st15{fill:url(#SVGID_5_);}
	.st16{fill:url(#SVGID_6_);}
	.st17{fill:url(#SVGID_7_);}
	.st18{fill:url(#SVGID_8_);}
	.st19{fill:url(#SVGID_9_);}
	.st20{fill:url(#SVGID_10_);}
	.st21{fill:url(#SVGID_11_);}
	.st22{fill:url(#SVGID_12_);}
	.st23{fill:#FEC29E;}
	.st24{fill:none;}
	.st25{opacity:0.17;fill:#FF887C;enable-background:new    ;}
	.st26{fill:#FB8E77;}
	.st27{fill:#626366;}
	.st28{fill:none;stroke:#FB8E77;stroke-linecap:round;stroke-miterlimit:10;}
	.st29{opacity:5.000000e-02;fill:#1B1B25;enable-background:new    ;}
	.st30{opacity:0.18;fill:#FF887C;enable-background:new    ;}
	.st31{fill:#1B1B25;}
	.st32{opacity:0.35;fill:#1B1B25;enable-background:new    ;}
	.st33{opacity:0.32;fill:#FF887C;enable-background:new    ;}
	.st34{opacity:8.000000e-02;fill:#FF887C;enable-background:new    ;}
	.st35{fill:#231F20;}
</style>
    <g id="BACKGROUND">
	<path class="st0" d="M146.1,82H3.8c-0.2,0-0.3-0.2-0.3-0.3l0,0c0-0.2,0.2-0.3,0.3-0.3h142.3c0.2,0,0.3,0.2,0.3,0.3l0,0
		C146.5,81.8,146.3,82,146.1,82z"/>
</g>
    <g id="OBJECTS">
	<path class="st1" d="M52.1,25L52.1,25c0-1.4-1.1-2.5-2.5-2.5l0,0c1.4,0,2.5-1.1,2.5-2.5l0,0c0,1.4,1.1,2.5,2.5,2.5l0,0
		C53.2,22.5,52.1,23.6,52.1,25z"/>
        <path class="st2" d="M80.8,20.4L80.8,20.4c0-1.7-1.4-3.1-3.1-3.1l0,0c1.7,0,3.1-1.4,3.1-3.1l0,0c0,1.7,1.4,3.1,3.1,3.1l0,0
		C82.2,17.3,80.8,18.7,80.8,20.4z"/>
        <path class="st1" d="M91.2,22.5L91.2,22.5c0-1-0.8-1.7-1.7-1.7l0,0c1,0,1.7-0.8,1.7-1.7l0,0c0,1,0.8,1.7,1.7,1.7l0,0
		C92,20.8,91.2,21.6,91.2,22.5z"/>
        <g>
		<path class="st3" d="M38.4,16.8H19.1c-2,0-3.6,1.6-3.6,3.6s1.6,3.6,3.6,3.6H35l2.2,2v-2h1.2c2,0,3.6-1.6,3.6-3.6
			C41.9,18.4,40.3,16.8,38.4,16.8z"/>
            <path class="st4" d="M20.9,19.9c0.3-0.2,0.4-0.5,0.4-0.9c0-0.6-0.5-1.1-1.1-1.1s-1.1,0.5-1.1,1.1c0,0.4,0.2,0.7,0.4,0.9
			c-0.8,0.3-1.4,1.1-1.4,2c0,1.2,4.2,1.2,4.2,0C22.2,20.9,21.7,20.2,20.9,19.9z"/>
            <g>
			<path class="st1" d="M38.6,18.7H24.8c-0.1,0-0.1,0-0.1-0.1s0-0.1,0.1-0.1h13.8c0.1,0,0.1,0,0.1,0.1
				C38.7,18.6,38.7,18.7,38.6,18.7z"/>
                <path class="st1" d="M36.5,21.9H24.8c-0.1,0-0.1,0-0.1-0.1s0-0.1,0.1-0.1h11.6c0.1,0,0.1,0,0.1,0.1
				C36.6,21.9,36.5,21.9,36.5,21.9z"/>
                <path class="st1" d="M33.3,20.4h-8.5c-0.1,0-0.1,0-0.1-0.1s0-0.1,0.1-0.1h8.5c0.1,0,0.1,0,0.1,0.1C33.4,20.4,33.4,20.4,33.3,20.4
				z"/>
                <path class="st1" d="M38.6,20.4h-4.2c-0.1,0-0.1,0-0.1-0.1s0-0.1,0.1-0.1h4.2c0.1,0,0.1,0,0.1,0.1C38.7,20.4,38.7,20.4,38.6,20.4
				z"/>
		</g>
            <path class="st1" d="M21.5,21.5c-0.1,0-0.2,0-0.2-0.1l-0.8-0.8c-0.1-0.1-0.1-0.3,0-0.5c0.1-0.1,0.3-0.1,0.5,0l0.6,0.6l1.6-1.6
			c0.1-0.1,0.3-0.1,0.5,0c0.1,0.1,0.1,0.3,0,0.5l-1.8,1.8C21.7,21.5,21.6,21.5,21.5,21.5z"/>
            <g>
			<path class="st4" d="M124.1,35.4h19.7c2,0,3.7,1.6,3.7,3.7c0,2-1.6,3.7-3.7,3.7h-16.3l-2.2,2v-2h-1.2c-2,0-3.7-1.6-3.7-3.7
				C120.4,37.1,122.1,35.4,124.1,35.4z"/>
                <g>
				<g>
					<g>
						<path class="st5" d="M143.4,38.5c0.3-0.2,0.4-0.5,0.4-0.9c0-0.6-0.5-1.1-1.1-1.1s-1.1,0.5-1.1,1.1c0,0.4,0.2,0.7,0.4,0.9
							c-0.8,0.3-1.4,1.1-1.4,2c0,1.2,4.2,1.2,4.2,0C144.7,39.6,144.2,38.8,143.4,38.5z"/>
                        <g>
							<path class="st1" d="M145.1,39.2h-0.5v-0.5c0-0.1,0-0.1-0.1-0.1H144c-0.1,0-0.1,0-0.1,0.1v0.5h-0.5c-0.1,0-0.1,0-0.1,0.1v0.5
								c0,0.1,0,0.1,0.1,0.1h0.5v0.5c0,0.1,0,0.1,0.1,0.1h0.5c0.1,0,0.1,0,0.1-0.1v-0.5h0.5c0.1,0,0.1,0,0.1-0.1v-0.5
								C145.2,39.2,145.1,39.2,145.1,39.2z"/>
						</g>
					</g>
				</g>
			</g>
                <g>
				<path class="st1" d="M138.8,37.6H125c-0.1,0-0.1,0-0.1-0.1s0-0.1,0.1-0.1h13.8c0.1,0,0.1,0,0.1,0.1
					C138.9,37.6,138.9,37.6,138.8,37.6z"/>
                    <path class="st1" d="M136.7,40.8H125c-0.1,0-0.1,0-0.1-0.1s0-0.1,0.1-0.1h11.6C136.7,40.6,136.7,40.6,136.7,40.8
					C136.8,40.8,136.7,40.8,136.7,40.8z"/>
                    <path class="st1" d="M133.5,39.3H125c-0.1,0-0.1,0-0.1-0.1s0-0.1,0.1-0.1h8.5c0.1,0,0.1,0,0.1,0.1S133.6,39.3,133.5,39.3z"/>
                    <path class="st1" d="M138.8,39.3h-4.2c-0.1,0-0.1,0-0.1-0.1s0-0.1,0.1-0.1h4.2c0.1,0,0.1,0,0.1,0.1
					C138.9,39.3,138.9,39.3,138.8,39.3z"/>
			</g>
		</g>
            <g>
			<path class="st5" d="M99.3,14.2h13.6c1.4,0,2.5,1.1,2.5,2.5s-1.1,2.5-2.5,2.5h-12.7h-0.8c-1.4,0-2.5-1.1-2.5-2.5
				S97.9,14.2,99.3,14.2z"/>
                <g>
				<path class="st1" d="M111.3,15.9h-10.5c-0.1,0-0.1,0-0.1-0.1s0-0.1,0.1-0.1h10.5c0.1,0,0.1,0,0.1,0.1
					C111.5,15.9,111.4,15.9,111.3,15.9z"/>
                    <path class="st1" d="M109.7,17.9h-8.9c-0.1,0-0.1,0-0.1-0.1s0-0.1,0.1-0.1h8.9c0.1,0,0.1,0,0.1,0.1
					C109.8,17.8,109.8,17.9,109.7,17.9z"/>
                    <path class="st1" d="M107.3,17h-6.5c-0.1,0-0.1,0-0.1-0.1s0-0.1,0.1-0.1h6.5c0.1,0,0.1,0,0.1,0.1S107.3,17,107.3,17z"/>
                    <path class="st1" d="M111.3,17h-3.2c-0.1,0-0.1,0-0.1-0.1s0-0.1,0.1-0.1h3.2c0.1,0,0.1,0,0.1,0.1S111.4,17,111.3,17z"/>
			</g>
		</g>
            <g>
			<path class="st6" d="M7.2,50.1h12.1c1.2,0,2.2,1,2.2,2.2s-1,2.2-2.2,2.2H8H7.2c-1.2,0-2.2-1-2.2-2.2S6,50.1,7.2,50.1z"/>
                <g>
				<path class="st1" d="M17.9,51.6H8.6c-0.1,0-0.1,0-0.1-0.1s0-0.1,0.1-0.1H18c0.1,0,0.1,0,0.1,0.1C18,51.6,18,51.6,17.9,51.6z"/>
                    <path class="st1" d="M16.5,53.3H8.6c-0.1,0-0.1,0-0.1-0.1s0-0.1,0.1-0.1h7.9c0.1,0,0.1,0,0.1,0.1S16.5,53.3,16.5,53.3z"/>
                    <path class="st1" d="M14.3,52.5H8.6c-0.1,0-0.1,0-0.1-0.1s0-0.1,0.1-0.1h5.8c0.1,0,0.1,0,0.1,0.1S14.4,52.5,14.3,52.5z"/>
                    <path class="st1" d="M17.9,52.5H15c-0.1,0-0.1,0-0.1-0.1s0-0.1,0.1-0.1h2.9c0.1,0,0.1,0,0.1,0.1S18,52.5,17.9,52.5z"/>
			</g>
		</g>
	</g>
        <g>
		<g>
			<path class="st1" d="M96.5,62.3H75c-0.1,0-0.1,0-0.1-0.1s0-0.1,0.1-0.1h21.5C96.6,62.1,96.6,62.1,96.5,62.3
				C96.6,62.3,96.6,62.3,96.5,62.3z"/>
            <path class="st1" d="M96.5,67.3H78.4c-0.1,0-0.1,0-0.1-0.1s0-0.1,0.1-0.1h18.1C96.6,67.1,96.6,67.1,96.5,67.3
				C96.6,67.3,96.6,67.3,96.5,67.3z"/>
            <path class="st1" d="M96.5,64.9H83.3c-0.1,0-0.1,0-0.1-0.1s0-0.1,0.1-0.1h13.2C96.6,64.7,96.6,64.7,96.5,64.9
				C96.6,64.9,96.6,64.9,96.5,64.9z"/>
            <path class="st1" d="M81.7,64.9H75c-0.1,0-0.1,0-0.1-0.1s0-0.1,0.1-0.1h6.6C81.7,64.7,81.7,64.7,81.7,64.9
				C81.7,64.9,81.7,64.9,81.7,64.9z"/>
		</g>
            <g>
			<path class="st1" d="M72.2,70.3H50.8c-0.1,0-0.1,0-0.1-0.1s0-0.1,0.1-0.1h21.5c0.1,0,0.1,0,0.1,0.1
				C72.3,70.2,72.3,70.3,72.2,70.3z"/>
                <path class="st1" d="M68.9,75.3H50.8c-0.1,0-0.1,0-0.1-0.1s0-0.1,0.1-0.1h18.1C69,75.1,69,75.1,68.9,75.3
				C69,75.3,69,75.3,68.9,75.3z"/>
                <path class="st1" d="M64,72.9H50.8c-0.1,0-0.1,0-0.1-0.1s0-0.1,0.1-0.1H64C64.1,72.7,64.1,72.7,64,72.9
				C64.1,72.9,64,72.9,64,72.9z"/>
                <path class="st1" d="M72.2,72.9h-6.6c-0.1,0-0.1,0-0.1-0.1s0-0.1,0.1-0.1h6.6C72.3,72.7,72.3,72.7,72.2,72.9
				C72.3,72.9,72.3,72.9,72.2,72.9z"/>
		</g>
	</g>
        <g>
		<g>

				<rect x="87" y="57.8" transform="matrix(0.4451 -0.8955 0.8955 0.4451 -3.5101 110.1086)" class="st3" width="0.2" height="0.2"/>
		</g>
            <g>

				<rect x="114.7" y="39.7" transform="matrix(0.8336 -0.5524 0.5524 0.8336 -2.8994 70.0631)" class="st7" width="0.3" height="0.3"/>
		</g>
            <g>
			<g>

					<rect x="122.9" y="64.7" transform="matrix(0.6987 -0.7154 0.7154 0.6987 -9.2925 107.593)" class="st8" width="0.3" height="0.3"/>
			</g>
		</g>
            <g>

				<rect x="104.1" y="11.7" transform="matrix(0.1021 -0.9948 0.9948 0.1021 81.793 114.6307)" class="st3" width="0.6" height="0.6"/>
		</g>
            <g>

				<rect x="63.8" y="73.2" transform="matrix(0.9989 -4.642601e-02 4.642601e-02 0.9989 -3.3335 3.0449)" class="st9" width="0.2" height="0.2"/>
		</g>
            <g>

				<rect x="92.2" y="44.5" transform="matrix(0.8746 -0.4848 0.4848 0.8746 -10.1942 50.5481)" class="st9" width="0.9" height="0.9"/>
		</g>
            <g>

				<rect x="90.8" y="13.4" transform="matrix(0.1346 -0.9909 0.9909 0.1346 65.2322 102.6911)" class="st9" width="1.2" height="1.2"/>
		</g>
            <g>

				<rect x="103.9" y="18.4" transform="matrix(0.6408 -0.7677 0.7677 0.6408 23.0988 86.6569)" class="st9" width="0.5" height="0.5"/>
		</g>
            <g>
			<g>

					<rect x="35.9" y="62.1" transform="matrix(0.8277 -0.5612 0.5612 0.8277 -28.7216 31.0098)" class="st8" width="0.4" height="0.4"/>
			</g>
		</g>
            <g>

				<rect x="35.9" y="27.9" transform="matrix(0.8006 -0.5992 0.5992 0.8006 -9.6192 27.2201)" class="st9" width="0.4" height="0.4"/>
		</g>
            <g>

				<rect x="83" y="66.7" transform="matrix(0.4135 -0.9105 0.9105 0.4135 -12.0763 114.8457)" class="st9" width="0.2" height="0.2"/>
		</g>
            <g>
			<g>

					<rect x="36.2" y="46.5" transform="matrix(0.2319 -0.9727 0.9727 0.2319 -17.4828 71.5786)" class="st8" width="0.7" height="0.7"/>
			</g>
		</g>
            <g>
			<rect x="59.4" y="49.6" transform="matrix(0.131 -0.9914 0.9914 0.131 2.4357 102.2733)" class="st7" width="0.3" height="0.3"/>
		</g>
            <g>
			<rect x="48.6" y="23.3" transform="matrix(0.7332 -0.68 0.68 0.7332 -3.0449 39.6312)" class="st7" width="0.8" height="0.8"/>
		</g>
            <g>

				<rect x="104.4" y="39.6" transform="matrix(0.9509 -0.3095 0.3095 0.9509 -7.1817 34.2973)" class="st7" width="0.3" height="0.3"/>
		</g>
            <g>

				<rect x="25" y="50.7" transform="matrix(0.7438 -0.6684 0.6684 0.7438 -27.5495 29.9417)" class="st7" width="0.5" height="0.5"/>
		</g>
            <g>
			<rect x="93.9" y="34" transform="matrix(0.9505 -0.3108 0.3108 0.9505 -6.0467 31.0311)" class="st7" width="0.9" height="0.9"/>
		</g>
            <g>
			<rect x="54.8" y="7.8" transform="matrix(0.6707 -0.7418 0.7418 0.6707 12.106 43.5492)" class="st7" width="0.6" height="0.6"/>
		</g>
            <g>
			<rect x="61.3" y="6.5" transform="matrix(0.317 -0.9484 0.9484 0.317 35.6401 63.1645)" class="st9" width="0.7" height="0.7"/>
		</g>
            <g>
			<g>

					<rect x="94" y="15.6" transform="matrix(0.5401 -0.8416 0.8416 0.5401 29.8642 87.0696)" class="st8" width="1.2" height="1.2"/>
			</g>
		</g>
            <g>
			<rect x="30.5" y="40" transform="matrix(0.2124 -0.9772 0.9772 0.2124 -15.2208 62.1665)" class="st3" width="1" height="1"/>
		</g>
            <g>

				<rect x="118.3" y="27.5" transform="matrix(0.9162 -0.4007 0.4007 0.9162 -1.3133 50.0206)" class="st9" width="1.3" height="1.3"/>
		</g>
            <g>
			<rect x="83.2" y="10.9" transform="matrix(0.8736 -0.4867 0.4867 0.8736 5.0182 42.1647)" class="st9" width="1" height="1"/>
		</g>
            <g>

				<rect x="107.9" y="53.9" transform="matrix(0.9467 -0.3222 0.3222 0.9467 -11.7161 37.7605)" class="st9" width="0.7" height="0.7"/>
		</g>
            <g>

				<rect x="85.2" y="5.3" transform="matrix(0.7262 -0.6874 0.6874 0.7262 19.4027 60.6595)" class="st9" width="1.4" height="1.4"/>
		</g>
            <g>

				<rect x="42.2" y="26.5" transform="matrix(5.825231e-02 -0.9983 0.9983 5.825231e-02 13.2629 68.2942)" class="st9" width="1.3" height="1.3"/>
		</g>
            <g>
			<g>

					<rect x="95.2" y="24.3" transform="matrix(0.7504 -0.6609 0.6609 0.7504 7.5054 69.3629)" class="st8" width="0.8" height="0.8"/>
			</g>
		</g>
            <g>
			<g>

					<rect x="87.4" y="18.5" transform="matrix(6.207727e-02 -0.9981 0.9981 6.207727e-02 63.4364 106.1968)" class="st8" width="1.7" height="1.7"/>
			</g>
		</g>
            <g>
			<g>

					<rect x="123.4" y="49.3" transform="matrix(0.7366 -0.6764 0.6764 0.7366 -0.9375 96.6496)" class="st8" width="0.5" height="0.5"/>
			</g>
		</g>
            <g>

				<rect x="45.2" y="10.8" transform="matrix(0.3416 -0.9398 0.9398 0.3416 19.4112 50.8401)" class="st7" width="1.5" height="1.5"/>
		</g>
            <g>

				<rect x="109.4" y="22.2" transform="matrix(0.4763 -0.8793 0.8793 0.4763 37.6783 108.1479)" class="st7" width="0.5" height="0.5"/>
		</g>
            <g>
			<g>
				<rect x="69.7" y="5.2" transform="matrix(0.4487 -0.8937 0.8937 0.4487 33.5738 65.8802)" class="st8" width="1" height="1"/>
			</g>
		</g>
            <g>
			<rect x="53" y="50.8" transform="matrix(0.1084 -0.9941 0.9941 0.1084 -3.2675 98.3596)" class="st3" width="0.4" height="0.4"/>
		</g>
            <g>
			<g>

					<rect x="99" y="51.4" transform="matrix(0.8856 -0.4644 0.4644 0.8856 -12.6063 51.9454)" class="st8" width="0.3" height="0.3"/>
			</g>
		</g>
            <g>
			<g>

					<rect x="76.6" y="11.8" transform="matrix(3.210671e-02 -0.9995 0.9995 3.210671e-02 62.3299 88.9641)" class="st8" width="1" height="1"/>
			</g>
		</g>
            <g>

				<rect x="66.3" y="14.2" transform="matrix(0.8995 -0.4368 0.4368 0.8995 0.2333 30.7179)" class="st9" width="1.3" height="1.3"/>
		</g>
            <g>

				<rect x="109.1" y="70.5" transform="matrix(0.9025 -0.4308 0.4308 0.9025 -19.812 54.0031)" class="st3" width="0.4" height="0.4"/>
		</g>
            <g>

				<rect x="64.8" y="26.5" transform="matrix(0.2636 -0.9646 0.9646 0.2636 21.9477 83.1073)" class="st7" width="1.3" height="1.3"/>
		</g>
            <g>
			<g>

					<rect x="124.4" y="39.4" transform="matrix(0.5904 -0.8071 0.8071 0.5904 19.0636 116.8094)" class="st8" width="0.4" height="0.4"/>
			</g>
		</g>
            <g>
			<g>
				<rect x="117" y="61.3" transform="matrix(0.9648 -0.263 0.263 0.9648 -12.048 32.9871)" class="st8" width="0.4" height="0.4"/>
			</g>
		</g>
            <g>
			<g>

					<rect x="93.6" y="81.2" transform="matrix(0.5929 -0.8053 0.8053 0.5929 -27.3202 108.5184)" class="st8" width="0.1" height="0.1"/>
			</g>
		</g>
            <g>
			<rect x="78.5" y="4.4" transform="matrix(0.8475 -0.5307 0.5307 0.8475 9.4906 42.5805)" class="st3" width="0.7" height="0.7"/>
		</g>
            <g>
			<rect x="56.6" y="42.6" transform="matrix(0.297 -0.9549 0.9549 0.297 -0.9094 84.2643)" class="st7" width="0.3" height="0.3"/>
		</g>
            <g>
			<rect x="53" y="25.5" transform="matrix(0.6776 -0.7354 0.7354 0.6776 -1.8117 47.4433)" class="st7" width="0.5" height="0.5"/>
		</g>
            <g>

				<rect x="85.6" y="30.6" transform="matrix(0.8801 -0.4748 0.4748 0.8801 -4.4849 44.6394)" class="st3" width="1.1" height="1.1"/>
		</g>
            <g>
			<rect x="102.7" y="47" transform="matrix(0.6355 -0.7721 0.7721 0.6355 0.9446 97.0159)" class="st7" width="1.1" height="1.1"/>
		</g>
            <g>

				<rect x="33.1" y="34.5" transform="matrix(0.8118 -0.5839 0.5839 0.8118 -14.0587 26.0922)" class="st3" width="0.7" height="0.7"/>
		</g>
            <g>

				<rect x="45.3" y="44.9" transform="matrix(0.6892 -0.7246 0.7246 0.6892 -18.5048 46.9125)" class="st9" width="0.3" height="0.3"/>
		</g>
            <g>

				<rect x="59.9" y="20.6" transform="matrix(0.9999 -1.521836e-02 1.521836e-02 0.9999 -0.3133 0.9211)" class="st3" width="0.9" height="0.9"/>
		</g>
            <g>
			<rect x="48" y="57.6" transform="matrix(0.9639 -0.2661 0.2661 0.9639 -13.6549 14.932)" class="st7" width="0.6" height="0.6"/>
		</g>
            <g>

				<rect x="51.2" y="16.6" transform="matrix(0.9894 -0.1455 0.1455 0.9894 -1.9052 7.6654)" class="st7" width="0.5" height="0.5"/>
		</g>
            <g>

				<rect x="48.6" y="74.4" transform="matrix(0.9491 -0.3149 0.3149 0.9491 -20.9659 19.0979)" class="st9" width="0.1" height="0.1"/>
		</g>
            <g>

				<rect x="111.9" y="29.1" transform="matrix(0.9015 -0.4327 0.4327 0.9015 -1.7824 51.6231)" class="st7" width="1.3" height="1.3"/>
		</g>
            <g>

				<rect x="98.9" y="26.9" transform="matrix(0.6977 -0.7164 0.7164 0.6977 10.4247 79.4073)" class="st7" width="0.9" height="0.9"/>
		</g>
            <g>

				<rect x="47.9" y="35.9" transform="matrix(0.3477 -0.9376 0.9376 0.3477 -2.4189 68.5268)" class="st3" width="0.3" height="0.3"/>
		</g>
	</g>
        <g>
		<g>
			<g>
				<polygon class="st3" points="75.3,15.5 73.2,37.2 68.9,31.9 63.7,35 68.9,15.5 				"/>
                <path class="st10" d="M75.3,15.5h-2.8h-3.6l-2.4,9c0.5,0.1,1.1,0.2,1.4,0.4c0.9,0.7,1.2,2.7,2.3,3.1c0.1,0,0.3,0.1,0.4,0.1
					c0.9,0,1.8,0.6,2,1.5l1,3.7L75.3,15.5z"/>
			</g>
            <g>
				<polygon class="st3" points="72.5,15.5 74.6,37.2 78.9,31.9 84,35 78.9,15.5 				"/>
                <path class="st10" d="M78.9,15.5h-3.6h-2.8l1.1,11.4c0.1,0,0.2,0,0.3,0c0.1,0,0.2,0,0.3,0c1.1,0.2,2.4,1.4,3.4,1.1
					c1.1-0.4,1.4-2.4,2.3-3.1c0.4-0.3,0.9-0.4,1.4-0.4L78.9,15.5z"/>
			</g>
		</g>
            <g>
			<path class="st9" d="M85.8,15c0,1.2-1.9,2.1-2.2,3.1c-0.4,1.1,0.6,2.9-0.1,3.8s-2.7,0.6-3.6,1.2c-0.9,0.7-1.2,2.7-2.3,3.1
				c-1.1,0.3-2.5-1.1-3.7-1.1s-2.6,1.5-3.7,1.1s-1.4-2.4-2.3-3.1s-3-0.3-3.6-1.2c-0.7-0.9,0.3-2.7-0.1-3.8C63.9,17,62,16.1,62,15
				s1.9-2.1,2.2-3.1c0.4-1.1-0.6-2.9,0.1-3.8C64.9,7,67,7.4,67.9,6.7s1.2-2.7,2.3-3.1c1.1-0.3,2.5,1.1,3.7,1.1s2.6-1.5,3.7-1.1
				S79,6,79.9,6.7s3,0.3,3.6,1.2c0.7,0.9-0.3,2.7,0.1,3.8C83.9,12.9,85.8,13.8,85.8,15z"/>
                <ellipse class="st11" cx="73.9" cy="15" rx="8.2" ry="8.2"/>
                <path class="st9" d="M74.6,9.3l0.9,2.7c0.1,0.3,0.4,0.6,0.8,0.6h2.8c0.8,0,1.1,1,0.5,1.5l-2.3,1.6c-0.3,0.2-0.4,0.6-0.3,0.9
				l0.9,2.7c0.2,0.8-0.6,1.4-1.3,0.9l-2.3-1.6c-0.3-0.2-0.7-0.2-1,0L71,20.2c-0.6,0.5-1.5-0.2-1.3-0.9l0.9-2.7
				c0.1-0.3,0-0.7-0.3-0.9L68.2,14c-0.6-0.5-0.3-1.5,0.5-1.5h2.8c0.4,0,0.7-0.2,0.8-0.6l0.9-2.7C73.3,8.5,74.4,8.5,74.6,9.3z"/>
		</g>
	</g>
        <g>
		<g>
			<defs>
				<rect id="SVGID_1_" x="3.5" y="43.3" width="143" height="38"/>
			</defs>
            <clipPath id="SVGID_2_">
				<use xlink:href="#SVGID_1_"  style="overflow:visible;"/>
			</clipPath>
            <g class="st12">
				<g>
					<g>
						<g>

								<linearGradient id="SVGID_3_" gradientUnits="userSpaceOnUse" x1="-64.4604" y1="-45.1832" x2="-64.4604" y2="4.0251" gradientTransform="matrix(0.9968 -7.960000e-02 -7.960000e-02 -0.9968 88.8483 32.538)">
								<stop  offset="0" style="stop-color:#FFFFFF"/>
                                    <stop  offset="1" style="stop-color:#1C887B"/>
							</linearGradient>
                            <path class="st13" d="M25.2,66.2c1.1-1.6,2.9-2.7,4.6-3c0.4-7.1,2.9-8.1,4.4-10.1c2.3-3.2,0.9-5.1,2.3-7
								c-3.3,3.2-5.4,0.2-9.7,5.6c-1.8,2.2-0.4,0.9-0.7,4.4c-0.2-0.8-0.5-1.5-0.8-2.2c-0.9,1.5-2.6,4.8-3.2,6
								c-5.4,10.6-5.6,6.1-3,9.7c0.5,0.6,0.9,1.3,1.1,2c-0.8-1.6-1.9-2.7-3.1-3.4c-1.9,3.6-1.2,4.9,2.4,9.9c4,5.5,1.3,7.1,2.7,1.9
								c2.4-8.7,7-5,7.6-16.1C28,64,26.2,65.1,25.2,66.2z"/>
						</g>

                        <linearGradient id="SVGID_4_" gradientUnits="userSpaceOnUse" x1="-63.3784" y1="-50.8542" x2="-63.3784" y2="-15.9249" gradientTransform="matrix(0.9968 -7.960000e-02 -7.960000e-02 -0.9968 88.8483 32.538)">
							<stop  offset="0" style="stop-color:#FFFFFF"/>
                            <stop  offset="1" style="stop-color:#34A299"/>
						</linearGradient>
                        <path class="st14" d="M29.7,54c4.3-6.2,5.1-5.4,4.6-5.9c-1.9,1.9-3.6,4.1-5.1,6.3c0.3-1.1,0.1-2.2-0.4-3.1
							c-0.5,0.3,0.4,0.2,0.3,2.2c-0.1,2.2-1.8,2.7-4.5,9.7c0.1-1.4-0.3-2.8-1.3-3.9c-0.5,0.4,0.7,0.3,1,2.7c0.2,1.7-0.3,2.5-0.3,2.6
							c-3.4,9.9,0.5,3.6-3.4-0.3l-0.2,0.2c4.7,4.7-2.2,12.3,3,29.5c0.7-0.2-1.4-3.2-1.8-12.2c-0.2-4.7-0.1-8,1.8-10.8
							c2.2-3.2,4.5-2.9,4.2-3.6c-2.5,0.9-4.6,2.9-5.6,5.7c0.8-5.5,1.8-12.5,7.3-13.4c-0.1-0.5-2.8,0.6-4.1,2.2
							c5.1-12.1,8.3-8.5,8.4-9.6C32.4,52.1,30.8,53,29.7,54z"/>
					</g>
                    <g>
						<g>

								<linearGradient id="SVGID_5_" gradientUnits="userSpaceOnUse" x1="-75.8" y1="-50.8542" x2="-75.8" y2="-15.9249" gradientTransform="matrix(0.9968 -7.960000e-02 -7.960000e-02 -0.9968 88.8483 32.538)">
								<stop  offset="0" style="stop-color:#FFFFFF"/>
                                    <stop  offset="1" style="stop-color:#34A299"/>
							</linearGradient>
                            <path class="st15" d="M19.2,97.6c-0.8-0.1,2.3-12.9-5.5-29.5C14.1,67.9,20.6,81.2,19.2,97.6z"/>
						</g>
                        <g>

								<linearGradient id="SVGID_6_" gradientUnits="userSpaceOnUse" x1="-77.0733" y1="-47.8451" x2="-77.0733" y2="-28.7852" gradientTransform="matrix(0.9968 -7.960000e-02 -7.960000e-02 -0.9968 88.8483 32.538)">
								<stop  offset="0" style="stop-color:#FFFFFF"/>
                                    <stop  offset="1" style="stop-color:#34A299"/>
							</linearGradient>
                            <path class="st16" d="M15.5,76.7c-0.2-0.2-0.6-0.6-1-0.8c-3.1-2-3.3,0.5-2.2-3.8c0.2-0.9,0.5-2.6,0.5-3.7
								c1.7,3.8,5.5,8.2,6.3,17.9c-0.8-6.3-7.3-6.9-7.4-10.7C12.9,75.6,14.6,75.9,15.5,76.7z"/>
						</g>
                        <g>
							<g>

									<linearGradient id="SVGID_7_" gradientUnits="userSpaceOnUse" x1="-74.977" y1="-54.1695" x2="-76.5972" y2="-26.0457" gradientTransform="matrix(0.9968 -7.960000e-02 -7.960000e-02 -0.9968 88.8483 32.538)">
									<stop  offset="0" style="stop-color:#FFFFFF"/>
                                        <stop  offset="1" style="stop-color:#1C887B"/>
								</linearGradient>
                                <path class="st17" d="M13.9,64.3c-0.8-0.6-1.9-0.8-2.8-1c-0.2-1.4-0.3-3.6,0.1-4.9c1.2,2.7,2.7,4,4.5,6.3
									c5.1,6.5,3.2,14.6,3.4,22.8c-1.2-14.6-5.7-14.2-7.9-23.6C12.1,63.7,13.3,63.9,13.9,64.3z"/>
							</g>
						</g>
					</g>
				</g>
                <g>
					<g>
						<g>

								<linearGradient id="SVGID_8_" gradientUnits="userSpaceOnUse" x1="-1316.6079" y1="54.8083" x2="-1316.6079" y2="104.0166" gradientTransform="matrix(-0.9968 -7.960000e-02 7.960000e-02 -0.9968 -1190.8483 32.538)">
								<stop  offset="0" style="stop-color:#FFFFFF"/>
                                    <stop  offset="1" style="stop-color:#1C887B"/>
							</linearGradient>
                            <path class="st18" d="M128.9,66.2c-1.1-1.6-2.9-2.7-4.6-3c-0.4-7.1-2.9-8.1-4.4-10.1c-2.3-3.2-0.9-5.1-2.3-7
								c3.3,3.2,5.4,0.2,9.7,5.6c1.8,2.2,0.4,0.9,0.7,4.4c0.2-0.8,0.5-1.5,0.8-2.2c0.9,1.5,2.6,4.8,3.2,6c5.4,10.6,5.6,6.1,3,9.7
								c-0.5,0.6-0.9,1.3-1.1,2c0.8-1.6,1.9-2.7,3.1-3.4c1.9,3.6,1.2,4.9-2.4,9.9c-4,5.5-1.3,7.1-2.7,1.9c-2.4-8.7-7-5-7.6-16.1
								C126.2,64,127.9,65.1,128.9,66.2z"/>
						</g>

                        <linearGradient id="SVGID_9_" gradientUnits="userSpaceOnUse" x1="-1315.526" y1="49.1373" x2="-1315.526" y2="84.0665" gradientTransform="matrix(-0.9968 -7.960000e-02 7.960000e-02 -0.9968 -1190.8483 32.538)">
							<stop  offset="0" style="stop-color:#FFFFFF"/>
                            <stop  offset="1" style="stop-color:#34A299"/>
						</linearGradient>
                        <path class="st19" d="M124.4,54c-4.3-6.2-5.1-5.4-4.6-5.9c1.9,1.9,3.6,4.1,5.1,6.3c-0.3-1.1-0.1-2.2,0.4-3.1
							c0.5,0.3-0.4,0.2-0.3,2.2c0.1,2.2,1.8,2.7,4.5,9.7c-0.1-1.4,0.3-2.8,1.3-3.9c0.5,0.4-0.7,0.3-1,2.7c-0.2,1.7,0.3,2.5,0.3,2.6
							c3.4,9.9-0.5,3.6,3.4-0.3l0.2,0.2c-4.7,4.7,2.2,12.3-3,29.5c-0.7-0.2,1.4-3.2,1.8-12.2c0.2-4.7,0.1-8-1.8-10.8
							c-2.2-3.2-4.5-2.9-4.2-3.6c2.5,0.9,4.6,2.9,5.6,5.7c-0.8-5.5-1.8-12.5-7.3-13.4c0.1-0.5,2.8,0.6,4.1,2.2
							c-5.1-12.1-8.3-8.5-8.4-9.6C121.7,52.1,123.3,53,124.4,54z"/>
					</g>
                    <g>
						<g>

								<linearGradient id="SVGID_10_" gradientUnits="userSpaceOnUse" x1="-1327.9475" y1="49.1373" x2="-1327.9475" y2="84.0666" gradientTransform="matrix(-0.9968 -7.960000e-02 7.960000e-02 -0.9968 -1190.8483 32.538)">
								<stop  offset="0" style="stop-color:#FFFFFF"/>
                                    <stop  offset="1" style="stop-color:#34A299"/>
							</linearGradient>
                            <path class="st20" d="M134.9,97.6c0.8-0.1-2.3-12.9,5.5-29.5C140,67.9,133.5,81.2,134.9,97.6z"/>
						</g>
                        <g>

								<linearGradient id="SVGID_11_" gradientUnits="userSpaceOnUse" x1="-1329.2209" y1="52.1464" x2="-1329.2209" y2="71.2063" gradientTransform="matrix(-0.9968 -7.960000e-02 7.960000e-02 -0.9968 -1190.8483 32.538)">
								<stop  offset="0" style="stop-color:#FFFFFF"/>
                                    <stop  offset="1" style="stop-color:#34A299"/>
							</linearGradient>
                            <path class="st21" d="M138.6,76.7c0.2-0.2,0.6-0.6,1-0.8c3.1-2,3.3,0.5,2.2-3.8c-0.2-0.9-0.5-2.6-0.5-3.7
								c-1.7,3.8-5.5,8.2-6.3,17.9c0.8-6.3,7.3-6.9,7.4-10.7C141.2,75.6,139.5,75.9,138.6,76.7z"/>
						</g>
                        <g>
							<g>

									<linearGradient id="SVGID_12_" gradientUnits="userSpaceOnUse" x1="-1327.1246" y1="45.8223" x2="-1328.7449" y2="73.9461" gradientTransform="matrix(-0.9968 -7.960000e-02 7.960000e-02 -0.9968 -1190.8483 32.538)">
									<stop  offset="0" style="stop-color:#FFFFFF"/>
                                        <stop  offset="1" style="stop-color:#1C887B"/>
								</linearGradient>
                                <path class="st22" d="M140.2,64.3c0.8-0.6,1.9-0.8,2.8-1c0.2-1.4,0.3-3.6-0.1-4.9c-1.2,2.7-2.7,4-4.5,6.3
									c-5.1,6.5-3.2,14.6-3.4,22.8c1.2-14.6,5.7-14.2,7.9-23.6C142,63.7,140.8,63.9,140.2,64.3z"/>
							</g>
						</g>
					</g>
				</g>
			</g>
		</g>
	</g>
        <g>
		<g>
			<g>
				<g>
					<g>
						<path class="st23" d="M92.1,57L92.1,57l2.5-8.6l0,0c0.1-0.2,0.4-0.7,1-1.1c1-0.7,1.1-1.9,1.1-1.9c0.5-0.5,1.2-1,1.7-1.5
							c0.1-0.1,0.1-0.1,0.1-0.2c0-0.1,0-0.2-0.1-0.2c-0.3-0.4-0.8-0.5-1.3-0.3c-0.3,0.1-0.5,0.3-0.7,0.5c-0.1,0.1-0.5,0.3-0.6,0.5
							l2-4.2c0.2-0.4,0.1-0.8-0.3-0.9l0,0c-0.2-0.1-0.3-0.1-0.5,0c-0.1,0-0.2,0.1-0.3,0.2l0,0c-2.3-1.9-5.1,4.7-5.1,4.7l-0.8,1.9
							L84,58.6c-1,1.8-0.2,4.1,1.6,5l0,0h0.1c0.5,0.3,1.2,0.5,1.9,0.5h13.5L104,57H92.1z M95.9,44.1L95.9,44.1L95.9,44.1L95.9,44.1z
							"/>
                        <g>
							<path class="st24" d="M91.7,58.3l-0.3,1.2C91.4,59.1,91.6,58.7,91.7,58.3z"/>
                            <path class="st25" d="M89.7,63.9C89.3,63.9,89.6,63.9,89.7,63.9L89.7,63.9z"/>
                            <path class="st25" d="M89.7,63.9C89.8,63.9,89.8,63.9,89.7,63.9C89.8,63.9,89.8,63.9,89.7,63.9z"/>
                            <path class="st25" d="M92.1,56.9l-0.4,1.4c-0.1,0.4-0.2,0.8-0.3,1.2l-0.5,1.6c-0.1,0.2-0.1,0.4-0.2,0.6
								c-0.4,1.2-0.7,2.2-0.7,2.2l4.8-6.9C93.5,57,93.2,56.9,92.1,56.9z"/>
                            <path class="st25" d="M89.7,63.9L89.7,63.9L89.7,63.9z"/>
						</g>
                        <path class="st26" d="M94,44.5L94,44.5C93.9,44.5,93.9,44.4,94,44.5c0.8-1.3,1.9-0.6,1.9-0.6s0.1,0.1,0,0.1c0,0-0.1,0.1-0.1,0
							C95.8,44,94.8,43.4,94,44.5C94.1,44.5,94,44.5,94,44.5z"/>
                        <path class="st26" d="M96.9,39.1c-0.4,0.4-0.7,0.9-1,1.4c-0.1,0.2-0.3,0.5-0.4,0.8s-0.2,0.5-0.2,0.8l0,0c0,0,0,0.1-0.1,0.1
							c0,0-0.1,0-0.1-0.1l0,0c0-0.3,0.1-0.6,0.2-0.9c0.1-0.3,0.3-0.5,0.4-0.8C96.1,40,96.5,39.5,96.9,39.1
							C96.8,39,96.9,39,96.9,39.1L96.9,39.1L96.9,39.1z"/>
                        <path class="st26" d="M96.3,38.9c-0.2,0.2-0.4,0.4-0.6,0.6c-0.2,0.2-0.3,0.4-0.5,0.7c-0.1,0.2-0.3,0.5-0.4,0.8
							c-0.1,0.1-0.1,0.3-0.1,0.4l-0.1,0.4l0,0l-0.1,0.1l-0.1-0.1l0,0l0.1-0.4c0.1-0.1,0.1-0.3,0.2-0.4c0.1-0.3,0.2-0.5,0.4-0.8
							c0.2-0.2,0.3-0.5,0.5-0.7C95.8,39.2,96,39,96.3,38.9C96.3,38.8,96.3,38.8,96.3,38.9C96.3,38.8,96.3,38.9,96.3,38.9L96.3,38.9z
							"/>
                        <path class="st26" d="M95.4,39c-0.3,0.3-0.6,0.7-0.9,1.1c-0.1,0.2-0.3,0.4-0.4,0.6c-0.1,0.2-0.2,0.4-0.2,0.7l0,0l-0.1,0.1
							l-0.1-0.1l0,0c0-0.2,0.1-0.5,0.2-0.7s0.2-0.4,0.4-0.6C94.7,39.6,95,39.2,95.4,39C95.3,38.9,95.4,38.9,95.4,39
							C95.4,38.9,95.4,38.9,95.4,39L95.4,39z"/>
					</g>
                    <g>
						<path class="st27" d="M123.1,69.5l-3.3-9c-0.4-2-2.3-3.5-4.5-3.5l-9.2-0.1H95.7v6.9h3.2L97.2,82l22.9,0.1L120,69.9L123.1,69.5
							z"/>
                        <path class="st28" d="M100.4,69"/>
					</g>
                    <path class="st29" d="M106,57L106,57H95.6v6.9h3.2v-0.2C98.9,60.1,102.1,57.1,106,57z"/>
                    <path class="st30" d="M92.9,47c0,0,0.6,5,0.6,4.8c0-0.1,1-3.5,1-3.5L92.9,47z"/>
				</g>
			</g>
		</g>
            <g>
			<g>
				<path class="st31" d="M106.5,72.1l-0.9-4.4l-0.7-3.4c-0.1-0.4-0.5-0.7-0.9-0.6l-3.4,0.7c-0.4,0.1-0.7,0.5-0.6,0.9l0.7,3.4
					l0.5,2.7l0.3,1.7c0.1,0.4,0.5,0.7,0.9,0.6l2-0.4l1.4-0.3C106.3,72.8,106.6,72.5,106.5,72.1z"/>
			</g>
                <g>
				<path class="st23" d="M124.5,76.1l-1.5-6.6l-6.9,0.8l0.4,1.7l0,0l-7.5-1.9l0,0c-0.2-0.1-0.6-0.4-0.9-0.9c-0.6-0.9-1.7-1-1.7-1
					c-0.2-0.2-0.4-0.4-0.6-0.7l0.2,0.9l0,0c-0.5,0.3-1,0.4-1.6,0.3c-1-0.1-2.6-0.2-3.3-0.3c-0.2,0-0.4,0.1-0.5,0.3
					c-1,2,3.2,3.9,4.1,4.3l0,0l0,0l0,0l0,0l0,0l0,0l0,0l0,0l1.6,0.6l12.9,6.3c0.1,0.1,0.2,0.1,0.4,0.2c0.6,0.3,1.3,0.4,2.1,0.2l0,0
					C123.7,80.1,124.9,78.1,124.5,76.1z"/>
                    <path class="st25" d="M124,74l-7.9-3.6c0.3,1.2,0.1,0.6,0.3,1.7l0.5,0.1C119.2,72.3,124,74,124,74z"/>
			</g>
                <path class="st32" d="M115.4,70.4C115.4,70.4,115.3,70.4,115.4,70.4l-1.1-4.9c0,0,0-0.1,0.1-0.1c0,0,0.1,0,0.1,0.1l1,4.7l3.3-0.4
				c0,0,0.1,0,0.1,0.1c0,0,0,0.1-0.1,0.1L115.4,70.4L115.4,70.4z"/>
		</g>
            <g>
			<path class="st25" d="M124,74.3C124,74.3,124.1,74.3,124,74.3C124.1,74.3,124,74.3,124,74.3z"/>
                <path class="st25" d="M124.1,74.3L124.1,74.3L124.1,74.3z"/>
                <path class="st25" d="M124,74c0,0,0,0.1,0,0.2C124,74.1,124,74.1,124,74z"/>
                <path class="st25" d="M124,74.2L124,74.2L124,74.2z"/>
		</g>
            <g>
			<g>
				<path class="st31" d="M114.6,39.2c-0.2-1.4-1.5-2.5-3-2.3c-0.4,0-0.7,0.2-1.1,0.4c-0.5-0.8-1.4-1.2-2.3-1.1
					c-0.5,0.1-1,0.3-1.4,0.7c-0.5-0.3-1.1-0.4-1.8-0.3c-1.7,0.2-3,1.8-2.8,3.5c0.1,0.8,0.5,1.5,1.1,2l-0.6,3.4
					c-0.2,1,0.5,1.9,1.5,2.1l7.6,1.4c1,0.2,1.9-0.5,2.1-1.5l1.2-6.7C115.2,40.2,115,39.6,114.6,39.2z"/>
                <g>
					<path class="st2" d="M103.5,41.1C103.5,41.1,103.5,41,103.5,41.1c-1.4-2.2,0.4-3.6,0.5-3.6h0.1v0.1c-0.1,0.1-1.8,1.3-0.5,3.3
						C103.6,41,103.6,41,103.5,41.1C103.5,41,103.5,41.1,103.5,41.1z"/>
				</g>
			</g>
                <g>
				<g>
					<path class="st23" d="M113.4,45.9h-0.2l-1.7-3.6c-0.4-0.1-0.8-0.2-1.1-0.4c-0.3,0.3-0.8,0.6-1.3,0.6c-0.6,0.1-1.2-0.1-1.6-0.5
						c-0.5,0.4-1.1,0.7-1.7,0.8c-0.8,0.1-1.5-0.1-2.1-0.5l-1.2,6.3c-0.2,0.9,0,1.7,0.4,2.4c0.4,1,1.3,1.8,2.5,2.1v4.1
						c0,1.4,1.2,2.6,2.6,2.6h0.8c1.4,0,2.6-1.2,2.6-2.6v-4.7c0.4-0.5,0.7-1,0.9-1.7l0.2-1.1h0.2c1,0.2,1.9-0.5,2.1-1.5v-0.1
						C115,47.1,114.4,46.1,113.4,45.9z"/>
				</g>
                    <path class="st33" d="M112.1,49.4l-0.2,0.8c-0.4,1.9-2.2,3.1-4,2.8l-2.7-0.5c-1-0.2-1.8-0.8-2.3-1.6c0.4,1.1,1.4,1.9,2.6,2.1
					h0.1c0.4,0.9,1.3,1.5,2.3,1.5h0.8c1.2,0,2.3-0.9,2.5-2c0.5-0.5,0.8-1.1,0.9-1.8l0.2-1.1L112.1,49.4z"/>
			</g>
                <g>
				<path class="st26" d="M113.5,48.4L113.5,48.4l-0.7-0.5c0,0,0,0,0-0.1c0,0,0,0,0-0.1l0.8-0.8h0.1V47l-0.7,0.7l0.6,0.5
					C113.6,48.2,113.6,48.3,113.5,48.4C113.6,48.3,113.6,48.4,113.5,48.4z"/>
                    <g>
					<g>
						<g>
							<g>
								<path class="st31" d="M109.3,45.2c-0.1,0-0.3-0.1-0.4-0.1c-0.1-0.1-0.3-0.1-0.4-0.2c-0.1-0.1-0.3-0.1-0.4-0.2
									c-0.1-0.1-0.3-0.1-0.4-0.2c-0.1-0.1-0.1-0.2,0.1-0.3s0.6-0.1,0.9,0.1c0.4,0.2,0.6,0.5,0.6,0.7
									C109.5,45.1,109.4,45.2,109.3,45.2z"/>
							</g>
                            <g>
								<path class="st31" d="M103.9,44.7c0.1,0.1,0.3,0.1,0.4,0.1s0.3,0,0.4,0s0.3,0,0.4,0.1c0.1,0,0.3,0.1,0.4,0
									c0.1,0,0.2-0.1,0.1-0.3s-0.4-0.4-0.8-0.4c-0.4-0.1-0.8,0.1-0.9,0.2C103.7,44.5,103.8,44.7,103.9,44.7z"/>
							</g>
						</g>
					</g>
                        <path class="st31" d="M108.1,46.6L108.1,46.6c0.1,0,0.2-0.1,0.3-0.2v-0.3c0-0.1-0.1-0.2-0.2-0.3l0,0c-0.1,0-0.2,0.1-0.3,0.2
						v0.3C107.9,46.5,107.9,46.6,108.1,46.6z"/>
                        <path class="st31" d="M104.4,46L104.4,46c0.1,0,0.2-0.1,0.3-0.2v-0.3c0-0.1-0.1-0.2-0.2-0.3l0,0c-0.1,0-0.2,0.1-0.3,0.2v0.3
						C104.2,45.9,104.3,46,104.4,46z"/>
                        <path class="st25" d="M108.2,47.6l0.7,0.1c0.1,0,0.3-0.1,0.3-0.2l0,0c0-0.1-0.1-0.3-0.2-0.3l-0.7-0.1c-0.1,0-0.3,0.1-0.3,0.2
						l0,0C108,47.5,108.1,47.6,108.2,47.6z"/>
                        <path class="st25" d="M103.2,46.8l0.7,0.1c0.1,0,0.3-0.1,0.3-0.2l0,0c0-0.1-0.1-0.3-0.2-0.3l-0.7-0.1c-0.1,0-0.3,0.1-0.3,0.2
						l0,0C103,46.7,103.1,46.8,103.2,46.8z"/>
                        <path class="st26" d="M105.4,50.7L105.4,50.7c-0.1-0.1-0.1-0.1-0.1-0.2c0.4-0.3,0.8-0.1,0.9,0v0.1h-0.1
						C106.2,50.7,105.8,50.4,105.4,50.7C105.5,50.7,105.4,50.7,105.4,50.7z"/>
                        <path class="st1" d="M106,48.3l2-0.3l-0.2,0.7c-0.1,0.4-0.6,0.7-1,0.7l0,0c-0.4,0-0.7-0.3-0.7-0.6L106,48.3z"/>
                        <path class="st26" d="M106.5,47.6L106.5,47.6l-0.6-0.2c-0.3-0.1-0.5-0.3-0.6-0.5s-0.1-0.5,0-0.8l0.9-1.7c0,0,0.1-0.1,0.1,0
						c0,0,0.1,0.1,0,0.1l-0.9,1.7c-0.1,0.2-0.1,0.4,0,0.6c0.1,0.2,0.3,0.3,0.5,0.4l0.6,0.2C106.6,47.4,106.6,47.5,106.5,47.6
						C106.6,47.5,106.6,47.6,106.5,47.6z"/>
				</g>
			</g>
		</g>
	</g>
        <g>
		<g>
			<g>
				<g>
					<path class="st23" d="M64.4,59.8l-6.8-12.7l-0.8-1.9c0,0-2.8-6.6-5.1-4.7l0,0c-0.1-0.1-0.2-0.2-0.3-0.2c-0.2-0.1-0.3-0.1-0.5,0
						l0,0c-0.3,0.1-0.4,0.6-0.3,0.9l2,4.2c-0.1-0.2-0.5-0.4-0.6-0.5c-0.2-0.2-0.4-0.3-0.7-0.5c-0.4-0.2-1-0.1-1.3,0.3
						c0,0.1-0.1,0.2-0.1,0.2c0,0.1,0.1,0.1,0.1,0.2c0.6,0.5,1.2,1,1.7,1.5c0,0,0.1,1.2,1.1,1.9c0.6,0.4,0.9,0.9,1,1.1l0,0l2.5,8.6
						h-3.6v6.9h8c0.7,0,1.3-0.2,1.9-0.5h0.1l0,0C64.6,63.9,65.4,61.6,64.4,59.8z"/>
                    <path class="st25" d="M58.6,65.3C59.4,65.3,58.6,65.3,58.6,65.3s-1.9-5-2.2-7c-1.2,0-1.4,0.1-2.7,0.1L58.6,65.3z"/>
                    <path class="st26" d="M54.5,45.9C54.4,45.9,54.4,45.9,54.5,45.9c-0.8-1.1-1.8-0.5-1.9-0.5h-0.1v-0.1
						C52.5,45.3,53.7,44.7,54.5,45.9C54.6,45.8,54.6,45.9,54.5,45.9L54.5,45.9z"/>
                    <path class="st26" d="M51.6,40.5c0.2,0.2,0.4,0.4,0.6,0.7c0.2,0.2,0.3,0.5,0.5,0.7c0.1,0.3,0.3,0.5,0.4,0.8
						c0.1,0.3,0.2,0.6,0.2,0.9c0,0,0,0.1-0.1,0.1c0,0-0.1,0-0.1-0.1l0,0l0,0c0-0.3-0.1-0.6-0.2-0.8c-0.1-0.3-0.2-0.5-0.4-0.8
						c-0.1-0.2-0.3-0.5-0.5-0.7C52,41,51.8,40.8,51.6,40.5L51.6,40.5C51.6,40.6,51.6,40.5,51.6,40.5L51.6,40.5z"/>
                    <path class="st26" d="M52.2,40.2c0.3,0.1,0.5,0.4,0.7,0.6c0.2,0.2,0.4,0.5,0.5,0.7c0.1,0.3,0.3,0.5,0.4,0.8l0.2,0.4l0.1,0.4
						c0,0,0,0.1-0.1,0.1c0,0-0.1,0-0.1-0.1l0,0l0,0l-0.1-0.4l-0.1-0.4c-0.1-0.3-0.2-0.5-0.4-0.8c-0.1-0.3-0.3-0.5-0.5-0.7
						C52.6,40.6,52.4,40.4,52.2,40.2L52.2,40.2C52.1,40.3,52.1,40.2,52.2,40.2L52.2,40.2z"/>
                    <path class="st26" d="M53.2,40.3c0.2,0.2,0.4,0.3,0.5,0.5c0.2,0.2,0.3,0.4,0.4,0.6c0.1,0.2,0.3,0.4,0.4,0.6
						c0.1,0.2,0.2,0.5,0.3,0.7c0,0,0,0.1-0.1,0.1c0,0-0.1,0-0.1-0.1l0,0l0,0c-0.1-0.2-0.1-0.5-0.2-0.7c-0.1-0.2-0.2-0.4-0.3-0.6
						c-0.1-0.2-0.3-0.4-0.4-0.6C53.4,40.7,53.3,40.6,53.2,40.3L53.2,40.3C53.1,40.4,53.1,40.4,53.2,40.3
						C53.1,40.3,53.1,40.3,53.2,40.3z"/>
                    <path class="st30" d="M53.6,49.3l2.6-0.3l-1.6,3.3C54.6,52.2,54.2,49.8,53.6,49.3z"/>
				</g>
                <g>
					<path class="st1" d="M43,58.5L43,58.5L43,58.5h-8.4c-1.8,0-3.4,1.1-4,2.7l0,0l0,0l0,0L27,70.9l3.3,0.4V82h17.9l1.3-16.7h3.1
						v-6.9L43,58.5z"/>
                    <path class="st29" d="M52.8,58.4h-9.5l0,0c3.6,0.1,6.4,3.1,6.4,6.7v0.2h3.1V58.4z"/>
                    <path class="st28" d="M49.8,70.5"/>
				</g>
			</g>
		</g>
            <g>
			<path class="st31" d="M49.5,65.8l-3.4-0.7c-0.4-0.1-0.8,0.2-0.9,0.6l-0.7,3.4l-0.9,4.4c-0.1,0.4,0.2,0.8,0.6,0.9l1.4,0.3l2,0.4
				c0.4,0.1,0.8-0.2,0.9-0.6l0.3-1.7l0.5-2.7l0.7-3.4C50.1,66.3,49.9,65.9,49.5,65.8z"/>
                <g>
				<path class="st23" d="M49.8,70.3c0-0.1-0.1-0.2-0.2-0.2c0,0,0,0,0-0.1c0,0,0,0-0.1,0s-0.1,0-0.2,0c-0.7,0.1-2.3,0.2-3.3,0.3
					c-0.5,0-1.1-0.1-1.6-0.3h-0.1l0.2-0.8c-0.2,0.2-0.4,0.4-0.6,0.6c-0.1,0-0.7,0.1-1.2,0.4c-0.2,0.1-0.4,0.3-0.5,0.6
					c-0.2,0.3-0.4,0.5-0.6,0.7c-0.1,0.1-0.2,0.1-0.3,0.2l0,0l-7.5,1.9l0,0l0.4-1.7l-6.9-0.8l-1.5,6.6c-0.5,2,0.8,4,2.8,4.5l0,0
					c0.7,0.2,1.4,0.1,2.1-0.2c0.1,0,0.2-0.1,0.4-0.2l12.7-6.3l1.7-0.6c0,0,0.1,0,0.2-0.1l0,0C46.4,74.3,50.8,72.4,49.8,70.3z"/>
                    <g>
					<path class="st25" d="M26.2,75.7C26.2,75.7,26.2,75.8,26.2,75.7C26.2,75.8,26.2,75.7,26.2,75.7z"/>
                        <path class="st25" d="M33.8,73.5c0.2-0.7,0.1-0.7,0.3-1.7l-7.9,3.6c0,0,0.8-0.2,1.9-0.5c0.1,0,0.2-0.1,0.3-0.1L33.8,73.5z"/>
                        <path class="st25" d="M26.2,75.6C26.2,75.6,26.2,75.7,26.2,75.6C26.2,75.7,26.2,75.6,26.2,75.6z"/>
                        <path class="st25" d="M26.2,75.8L26.2,75.8L26.2,75.8z"/>
                        <path class="st25" d="M26.2,75.4c0,0.1,0,0.1,0,0.2C26.2,75.5,26.2,75.4,26.2,75.4z"/>
				</g>
                    <path class="st32" d="M34.8,71.9L34.8,71.9l-1.5-0.2c0,0-0.1,0-0.1-0.1c0,0,0-0.1,0.1-0.1l1.4,0.2l0.8-5.1l0.1-0.1l0.1,0.1
					L34.8,71.9C34.9,71.8,34.9,71.9,34.8,71.9z"/>
			</g>
                <path class="st34" d="M36.6,72.8l3.4-0.1c0.6,0.1,1.6-0.5,1.5-1.1l0,0L36.6,72.8z"/>
		</g>
            <g>
			<g>
				<path class="st31" d="M47.3,56.3l-1.2-7.9c-0.1-0.9-0.4-1.7-0.7-2.4l0.6-0.1c0,0-0.4-6.4-7.6-4.9c-0.7-0.1-1.4-0.1-2.2,0l0,0
					c-3.5,0.5-5.9,3.8-5.4,7.2l0.7,4.6c0.5,3.5,3.8,5.9,7.2,5.4l7.9-1.2C47.1,57,47.4,56.7,47.3,56.3z"/>
                <path class="st2" d="M42.6,45.6C42.5,45.6,42.5,45.6,42.6,45.6c-0.1-0.1-0.1-0.2,0-0.2l2.3-0.3l0,0l0,0c-0.4-2.1-2.3-3-2.3-3
					s-0.1-0.1,0-0.1c0,0,0.1-0.1,0.1,0c0,0,2,1,2.4,3.2c0,0.1,0,0.1,0,0.2c0,0.1-0.1,0.1-0.2,0.1L42.6,45.6L42.6,45.6z"/>
			</g>
                <g>
				<g>
					<path class="st23" d="M44.8,46.1l-6.3,1L37,44.8c0.3,2.5-1.6,4.2-1.6,4.2s0,0-0.1-0.1h-0.1c-1,0.2-1.6,1.1-1.5,2.1l0,0
						c0.2,1,1.1,1.6,2.1,1.5h0.1c0.2,0.9,0.7,1.8,1.4,2.4v4c0,1.4,1.2,2.6,2.6,2.6l0,0c1.4,0,2.6-1.2,2.6-2.6v-3.2
						c1-0.5,1.9-1.3,2.3-2.3l0,0c0.6-0.9,0.8-2.1,0.6-3.3L44.8,46.1z"/>
				</g>
                    <path class="st33" d="M41.8,55.6L41.8,55.6c-2.3,0.4-4.6-0.9-5.3-3.2c0-0.1-0.4,0-0.4,0.1c0.2,0.9,0.7,1.8,1.4,2.4
					c0.1,1.3,1.2,2.4,2.6,2.4l0,0c1,0,1.9-0.6,2.3-1.4c1.2-0.4,2.1-1.3,2.6-2.5C44.3,54.5,43.2,55.4,41.8,55.6z"/>
			</g>
                <g>
				<path class="st26" d="M35.1,51.3C35.1,51.3,35,51.3,35.1,51.3C35,51.2,35,51.2,35.1,51.3l0.5-0.5L34.9,50v-0.1H35l0.8,0.8
					c0,0,0,0,0,0.1c0,0,0,0,0,0.1L35.1,51.3L35.1,51.3z"/>
                    <g>
					<g>
						<g>
							<g>
								<g>
									<path class="st31" d="M39.6,48.2c0.1,0,0.2,0,0.2-0.1c0.1,0,0.2-0.1,0.2-0.1c0.1,0,0.2-0.1,0.2-0.1c0.1,0,0.2-0.1,0.2-0.1
										c0-0.1,0-0.1-0.1-0.2c-0.1-0.1-0.3-0.1-0.6,0c-0.2,0.1-0.4,0.3-0.4,0.4C39.5,48.1,39.5,48.2,39.6,48.2z"/>
								</g>
                                <g>
									<path class="st31" d="M44.1,47.4c-0.1,0-0.2,0-0.2,0c-0.1,0-0.2,0-0.3,0s-0.2,0-0.3,0s-0.2,0-0.2-0.1c-0.1,0-0.1-0.1,0-0.2
										c0.1-0.1,0.3-0.2,0.5-0.1C43.9,47,44,47.2,44.1,47.4C44.3,47.3,44.2,47.4,44.1,47.4z"/>
								</g>
							</g>
						</g>
                        <path class="st26" d="M41.6,51.7c-0.7,0-1.2-0.5-1.2-0.6V51h0.1c0,0,0.7,0.8,1.6,0.4h0.1v0.1C42,51.7,41.8,51.7,41.6,51.7z"/>
                        <path class="st26" d="M42.1,50.5C42.1,50.5,42,50.5,42.1,50.5c-0.1-0.1-0.1-0.2,0-0.2l0.6-0.1c0.4-0.1,0.6-0.4,0.5-0.8
							c0-0.1-0.2-0.2-0.3-0.2c-0.3,0.1-0.6-0.1-0.7-0.5L42.1,48c0,0,0-0.1,0.1-0.1c0,0,0.1,0,0.1,0.1l0.1,0.7c0,0.2,0.3,0.4,0.5,0.3
							c0.1,0,0.2,0,0.3,0.1s0.2,0.2,0.2,0.3c0.1,0.5-0.2,0.9-0.7,1L42.1,50.5L42.1,50.5z"/>
                        <path class="st31" d="M40.4,49.6L40.4,49.6c-0.1,0-0.2-0.1-0.2-0.2v-0.3c0-0.1,0.1-0.2,0.2-0.2l0,0c0.1,0,0.2,0.1,0.2,0.2v0.3
							C40.6,49.5,40.5,49.6,40.4,49.6z"/>
                        <path class="st31" d="M44,49.1L44,49.1c-0.1,0-0.2-0.1-0.2-0.2v-0.3c0-0.1,0.1-0.2,0.2-0.2l0,0c0.1,0,0.2,0.1,0.2,0.2v0.3
							C44.2,48.9,44.1,49,44,49.1z"/>
                        <path class="st25" d="M40.3,50.6l-0.7,0.1c-0.1,0-0.3-0.1-0.3-0.2l0,0c0-0.1,0.1-0.3,0.2-0.3l0.7-0.1c0.1,0,0.3,0.1,0.3,0.2
							l0,0C40.5,50.4,40.4,50.6,40.3,50.6z"/>
                        <path class="st25" d="M45.1,49.8l-0.7,0.1c-0.1,0-0.3-0.1-0.3-0.2l0,0c0-0.1,0.1-0.3,0.2-0.3l0.7-0.1c0.1,0,0.3,0.1,0.3,0.2
							l0,0C45.3,49.7,45.2,49.8,45.1,49.8z"/>
                        <path class="st26" d="M43,53.6C42.9,53.6,42.9,53.6,43,53.6c-0.4-0.3-0.7,0-0.7,0h-0.1v-0.1c0.2-0.1,0.5-0.3,0.9,0
							C43.1,53.5,43.1,53.5,43,53.6L43,53.6z"/>
					</g>
				</g>
			</g>
		</g>
	</g>
        <g>
		<path class="st35" d="M65,67.7c0-2,3.4-5.1,5.1-5.1c0.7,0,1.3,0.6,1.3,1.2c0,1.2-1.9,2.7-2.5,2.7c-0.3,0-0.6-0.3-0.6-0.4
			c0-0.1,0-0.1,0.1-0.1c0.4,0,2.6-1.7,2.6-2.6c0-0.2-0.1-0.3-0.4-0.3c-1.9,0-4.9,3.1-4.9,4.8c0,0.6,0.3,0.8,1,0.8
			c1.5,0,3.4-1.2,4.3-1.9l0,0c0.1,0,0.1,0.1,0.1,0.2v0.1c-1,1-2.9,2.2-4.2,2.2C65.8,69.5,65,68.7,65,67.7z"/>
            <path class="st35" d="M75.1,67.2C75.1,67.2,75,67.3,75.1,67.2c-0.9,0.9-1.8,1.5-2.1,1.5c-0.2,0-0.4-0.4-0.4-0.6
			c0-0.5,0.8-1.6,1.1-1.9l0,0c-0.5,0.4-2.7,2.2-3,2.7c0,0.1-0.1,0.1-0.1,0.1c-0.1,0-0.4-0.3-0.4-0.6c0,0,0-0.1,0-0.1
			c0.1-0.6,3.1-5,3.8-5c0.1,0,0.6,0.2,0.6,0.4c0,0,0,0.1-0.1,0.1C73.5,64,71.7,67,71,68.1c0.7-0.8,2.7-2.6,3.1-2.6
			c0.2,0,0.6,0.4,0.6,0.5c0,0,0,0.1-0.1,0.1c-0.6,0.5-1.3,1.6-1.3,1.9c0,0.1,0,0.1,0.1,0.1c0.2,0,0.9-0.4,1.6-1.1l0,0
			C75,67,75.1,67,75.1,67.2z"/>
            <path class="st35" d="M74.2,68.2c0-0.5,1.4-2.8,1.8-2.8c0.1,0,0.5,0.2,0.5,0.3c0,0,0,0-0.1,0.1c-0.2,0.1-1.5,1.9-1.5,2.2
			c0,0.1,0,0.1,0.1,0.1c0.2,0,1.2-0.6,1.8-1.2l0,0c0.1,0,0.1,0.1,0.1,0.2v0.1c-0.9,0.9-1.9,1.6-2.2,1.6
			C74.5,68.9,74.2,68.4,74.2,68.2z M77.7,63.9L77.7,63.9c-0.2,0.1-0.9,0.9-1,1l0,0c-0.1,0-0.3-0.2-0.2-0.4c0-0.3,0.5-1,0.8-1
			C77.4,63.5,77.7,63.7,77.7,63.9z"/>
            <path class="st35" d="M80.8,67.2C80.8,67.2,80.8,67.3,80.8,67.2c-0.9,0.9-1.7,1.5-2,1.5c-0.1,0-0.4-0.3-0.4-0.5
			c0-0.1,0.1-0.5,0.2-0.7c-0.5,0.6-1.5,1.4-1.9,1.4c-0.2,0-0.6-0.4-0.6-0.7c0-0.8,1.7-3,2.7-3c0.4,0,0.9,0.3,0.9,0.6
			c0,0.1-0.1,0.4-0.4,0.4c0,0-0.1,0-0.1-0.1c0,0,0.1-0.1,0.1-0.3c0-0.1-0.1-0.2-0.2-0.2c-0.8,0-2.3,1.9-2.3,2.4c0,0.1,0,0.1,0.1,0.1
			c0.4,0,1.9-1.4,2.2-1.7c0.1-0.1,0.1-0.1,0.1-0.1c0.2,0,0.4,0.3,0.4,0.4l0,0c-0.1,0.1-0.5,0.8-0.5,1c0,0.1,0,0.1,0.1,0.1
			c0.1,0,0.9-0.5,1.5-1.1l0,0C80.7,67,80.8,67,80.8,67.2z"/>
	</g>
        <g>
		<path class="st35" d="M72,76.5v1.3h-0.1l-0.7-1v1H71v-1.3h0.1l0.7,1.1v-1.1H72z"/>
            <path class="st35" d="M73.2,77.2h-0.6v0.6h-0.1v-1.3h0.1v0.6h0.6v-0.6h0.1v1.3h-0.1V77.2z"/>
            <path class="st35" d="M74.4,77.5h-0.6l-0.1,0.3h-0.2l0.5-1.3h0.2l0.5,1.3h-0.2L74.4,77.5z M74.4,76.3L74.4,76.3l-0.3-0.1l-0.2,0.1
			l-0.1-0.1l0.3-0.1L74.4,76.3z M74.1,76.7l-0.2,0.6h0.5L74.1,76.7z M74.1,78.2L74.1,78.2L74.1,78.2l-0.1-0.1h0.1h0.1L74.1,78.2
			L74.1,78.2C74.2,78.2,74.2,78.2,74.1,78.2z"/>
            <path class="st35" d="M75.9,76.5v1.3h-0.1l-0.7-1v1h-0.1v-1.3h0.1l0.7,1.1v-1.1H75.9z"/>
            <path class="st35" d="M78,77.1c0,0.1,0,0.2-0.1,0.4c-0.1,0.1-0.1,0.1-0.2,0.2l0.4,0.4h-0.2l-0.4-0.3c-0.1,0-0.1,0-0.2,0
			s-0.1,0-0.3-0.1c-0.1,0-0.1-0.1-0.2-0.1c-0.1-0.1-0.1-0.1-0.1-0.2c0-0.1-0.1-0.1-0.1-0.3s0-0.2,0.1-0.3c0-0.1,0.1-0.1,0.1-0.2
			c0.1-0.1,0.1-0.1,0.2-0.1c0.1-0.1,0.1-0.1,0.3-0.1s0.2,0,0.3,0.1c0.1,0,0.1,0.1,0.2,0.1s0.1,0.1,0.1,0.2C78,76.9,78,77,78,77.1z
			 M76.9,77.1c0,0.1,0,0.1,0.1,0.2c0,0.1,0.1,0.1,0.1,0.1c0.1,0.1,0.1,0.1,0.1,0.1c0.1,0,0.1,0,0.2,0s0.1,0,0.2,0s0.1-0.1,0.1-0.1
			s0.1-0.1,0.1-0.1c0-0.1,0.1-0.1,0.1-0.2s0-0.1-0.1-0.2c0-0.1-0.1-0.1-0.1-0.1c-0.1-0.1-0.1-0.1-0.1-0.1c-0.1,0-0.1,0-0.2,0
			c-0.1,0-0.1,0-0.2,0S77,76.8,77,76.8c-0.1,0.1-0.1,0.1-0.1,0.1C76.9,77,76.9,77.1,76.9,77.1z"/>
            <path class="st35" d="M78.2,76.5h0.1v0.8c0,0.1,0,0.2,0.1,0.3c0.1,0.1,0.1,0.1,0.2,0.1c0.1,0,0.1,0,0.2-0.1s0.1-0.1,0.1-0.3v-0.8
			h0.1v0.8c0,0.1,0,0.1-0.1,0.2c0,0.1-0.1,0.1-0.1,0.1c-0.1,0.1-0.1,0.1-0.1,0.1c-0.1,0-0.1,0-0.2,0s-0.1,0-0.2,0s-0.1-0.1-0.1-0.1
			c-0.1-0.1-0.1-0.1-0.1-0.1s0.1-0.1,0.1-0.2V76.5z"/>
            <path class="st35" d="M80.3,77.5h-0.6l-0.1,0.3h-0.2l0.5-1.3h0.2l0.5,1.3h-0.2L80.3,77.5z M80,76.7l-0.2,0.6h0.5L80,76.7z
			 M79.8,76.1l0.3,0.2L80,76.4l-0.3-0.2L79.8,76.1z"/>
            <path class="st35" d="M72.5,78.7v1.2h0.4V80h-0.6v-1.3H72.5z"/>
            <path class="st35" d="M73.1,78.7h0.1V80h-0.1V78.7z"/>
            <path class="st35" d="M74.3,78.9h-0.5v0.4h0.5v0.1h-0.5v0.4h0.5V80h-0.7v-1.3h0.7V78.9z M74.2,78.6L74.2,78.6l-0.3-0.1l-0.2,0.1
			l-0.1-0.1l0.3-0.1L74.2,78.6z M74,78.2l0.1,0.2l0.1-0.1l-0.1-0.2L74,78.2z"/>
            <path class="st35" d="M75.6,78.7V80h-0.1l-0.7-1v1h-0.1v-1.3h0.1l0.7,1.1v-1.1H75.6z"/>
            <path class="st35" d="M76.3,78.7h0.9v0.1h-0.4V80h-0.1v-1.2h-0.4V78.7z"/>
            <path class="st35" d="M78,79.7h-0.6L77.4,80h-0.2l0.5-1.3h0.2l0.5,1.3h-0.2L78,79.7z M77.7,79l-0.2,0.6H78L77.7,79z"/>
            <path class="st35" d="M78.2,78.7h0.2l0.4,0.6l0.4-0.6h0.2L79,79.5V80h-0.1v-0.5L78.2,78.7z"/>
	</g>
        <g>
		<path class="st35" d="M69.4,70.7C69.4,70.7,69.4,70.7,69.4,70.7c-0.5,0.2-0.7,1.3-1,2.2c-0.2,0.6-0.6,1.2-1.2,1
			c-0.4-0.1-0.9-0.6-0.8-0.9c0-0.1,0.2-0.3,0.3-0.2c0,0,0,0,0,0.1c0,0.1,0,0.4,0.3,0.4c0.6,0.1,0.9-1,1.2-1.8
			c-0.4,0.2-0.7,0.5-1.1,0.7l0,0c-0.1,0-0.1-0.1-0.1-0.3v-0.1c0.4-0.3,1.2-0.8,1.4-1.2c0.1-0.3,0.4-0.5,0.6-0.5
			C69.2,70.3,69.5,70.6,69.4,70.7z"/>
            <path class="st35" d="M72.5,73C72.5,73,72.5,73,72.5,73c-0.7,0.5-2.2,1.4-3,1.2c-0.5-0.1-0.9-0.6-0.8-1.1c0.1-0.8,1.7-2.3,2.6-2.2
			c0.4,0.1,0.7,0.5,0.6,0.8c-0.1,0.4-1.2,1.1-2,0.9c-0.1,0-0.2-0.1-0.3-0.1c-0.2,0.2-0.4,0.5-0.4,0.6c0,0.1,0.1,0.3,0.3,0.4
			c0.7,0.1,2.4-0.7,2.7-0.9l0,0C72.5,72.7,72.5,72.9,72.5,73z M70.1,72.4L70.1,72.4c0.5,0.1,1.5-0.4,1.6-0.8c0-0.1,0-0.1-0.1-0.1
			C71.2,71.4,70.6,71.9,70.1,72.4z M71.9,69.3c0.1-0.2,0.6-0.3,0.8-0.2c0.2,0.1,0.4,0.3,0.4,0.5c-0.1,0.4-0.9,0.9-1.2,0.9
			c-0.1,0-0.1-0.1-0.1-0.1l0,0c0.3-0.1,0.6-0.4,0.7-0.6c0-0.1,0-0.1-0.1-0.1c-0.1,0-0.3,0-0.4,0.1H72C71.9,69.6,71.8,69.4,71.9,69.3
			z"/>
	</g>
        <g>
		<path class="st35" d="M76.6,71.4C76.6,71.4,76.5,71.4,76.6,71.4c-0.6,0.6-1.4,1.2-1.6,1.2c-0.1,0-0.4-0.3-0.4-0.5
			c0-0.4,0.6-1.2,0.8-1.4l0,0c-0.4,0.3-2,1.7-2.2,2.1l-0.1,0.1c-0.1,0-0.3-0.2-0.3-0.4c0-0.1,0-0.1,0-0.1c0.4-0.5,1.4-1.9,1.4-2.1
			c0,0,0,0,0-0.1c0,0,0-0.1,0.1-0.1c0.1,0,0.4,0.1,0.4,0.4c0,0.1-0.6,0.9-1,1.4c0.6-0.6,1.8-1.8,2.1-1.8c0.1,0,0.4,0.3,0.4,0.4
			c0,0,0,0.1-0.1,0.1c-0.4,0.4-1,1.2-1,1.4c0,0.1,0,0.1,0.1,0.1c0.1,0,0.7-0.4,1.2-0.8l0,0C76.5,71.2,76.6,71.3,76.6,71.4z"/>
            <path class="st35" d="M75.3,73.8c0-0.4,0.8-0.6,1.8-1.2c0.2-0.4,0.4-0.7,0.6-1c-0.4,0.4-1.2,1.1-1.5,1.1c-0.2,0-0.4-0.2-0.4-0.4
			c0-0.6,1.3-2.2,2-2.2c0.3,0,0.6,0.2,0.6,0.4c0,0.1-0.1,0.4-0.2,0.4h-0.1c0,0,0.1-0.1,0.1-0.2c0-0.1-0.1-0.1-0.1-0.1
			c-0.6,0-1.6,1.4-1.6,1.7c0,0.1,0,0.1,0.1,0.1c0.3,0,1.5-1.1,1.6-1.2h0.1c0.1,0,0.4,0.1,0.4,0.3l0,0c-0.1,0.2-0.2,0.6-0.5,0.9
			c0.4-0.2,0.9-0.6,1.2-0.9l0,0c0.1,0,0.1,0.1,0.1,0.2v0.1c-0.4,0.4-1.1,0.8-1.7,1.1c-0.6,0.9-1.3,1.7-1.9,1.7
			C75.5,74.3,75.3,74,75.3,73.8z M76.9,73c-0.7,0.4-1.3,0.7-1.3,0.9c0,0.1,0,0.1,0.1,0.1C76,73.8,76.6,73.4,76.9,73z"/>
            <path class="st35" d="M82.3,71.4C82.3,71.4,82.3,71.4,82.3,71.4c-0.6,0.6-1.4,1.2-1.5,1.2c-0.1,0-0.4-0.2-0.4-0.4
			c0-0.1,0.1-0.4,0.1-0.6c-0.4,0.4-1.2,1.1-1.4,1.1c-0.2,0-0.4-0.3-0.4-0.5c0-0.6,1.3-2.2,2.1-2.2c0.3,0,0.6,0.2,0.6,0.4
			c0,0.1-0.1,0.4-0.2,0.4h-0.1c0,0,0.1-0.1,0.1-0.2s-0.1-0.1-0.1-0.1c-0.6,0-1.7,1.4-1.7,1.8c0,0.1,0,0.1,0.1,0.1
			c0.3,0,1.5-1.1,1.7-1.2c0,0,0.1-0.1,0.1-0.1c0.1,0,0.4,0.2,0.4,0.3l0,0c-0.1,0.1-0.4,0.6-0.4,0.8c0,0.1,0,0.1,0.1,0.1
			c0.1,0,0.6-0.4,1.2-0.8l0,0C82.2,71.2,82.3,71.3,82.3,71.4z"/>
            <path class="st35" d="M81.1,73.8c0-0.4,0.8-0.6,1.8-1.2c0.4-0.4,0.7-1.1,1-1.6c-0.4,0.4-1.5,1.7-1.9,1.7c-0.1,0-0.4-0.3-0.4-0.5
			c0-0.4,1.1-2.1,1.4-2.1c0.1,0,0.4,0.1,0.4,0.2l0,0c-0.2,0.1-1.2,1.4-1.2,1.7c0,0.1,0,0.1,0.1,0.1c0.3,0,1.9-1.7,2-1.9h0.1
			c0.1,0,0.4,0.1,0.4,0.3l0,0c-0.2,0.4-0.5,1-0.9,1.6c0.4-0.2,0.9-0.6,1.4-0.9l0,0c0.1,0,0.1,0.1,0.1,0.2v0.1
			c-0.4,0.4-1.1,0.9-1.8,1.2c-0.6,0.9-1.3,1.7-1.8,1.7C81.3,74.3,81.1,74,81.1,73.8z M82.6,73c-0.7,0.4-1.3,0.6-1.3,0.8
			c0,0.1,0,0.1,0.1,0.1C81.8,73.8,82.3,73.4,82.6,73z"/>
	</g>
</g>
</svg>
